<?xml version='1.0' encoding='utf-8'?>
<svg xmlns="http://www.w3.org/2000/svg" version="1.1" x="0px" y="0px" width="3000px" height="2000px" viewBox="0 0 3000 2000" enable-background="new 0 0 3000 2000"> <g id="Camada_1"> <rect y="1" fill="#59A3C3" width="3000" height="1041.858"/> <rect x="1746.395" y="954.65" fill="#AEADB3" width="0.573" height="300.267"/> <path fill="#A0B380" d="M832.386,1397.206c8.87,26.973,13.973,58.56,13.973,92.327c0,34.35-5.28,66.444-14.436,93.721v0.237 c54.196,0,98.13-41.704,98.13-93.146C930.052,1439.051,886.368,1397.443,832.386,1397.206z"/> <path fill="#A0B380" d="M1172.567,1095.937c25.113,18.15,41.504,41.212,45.587,67.729c4.153,26.975-4.974,53.983-24.231,78.533 l0.029,0.186c133.515-18.523,236.707-66.29,230.486-106.688C1418.235,1095.416,1305.584,1077.672,1172.567,1095.937z"/> <path fill="#A0B380" d="M1238.129,1753.81c25.113,18.149,41.504,41.212,45.587,67.729c4.153,26.974-4.974,53.982-24.231,78.532 l0.029,0.187c133.515-18.523,236.707-66.291,230.486-106.688C1483.797,1753.288,1371.146,1735.545,1238.129,1753.81z"/> <path fill="#E5A895" d="M1636.323,986.474l-19.309-11.523c-2.373-0.684-3.741-3.161-3.057-5.535l0,0 c0.683-2.37,3.161-3.739,5.533-3.056l19.932,9.737C1645.779,978.028,1643.746,988.247,1636.323,986.474z"/> <polygon fill="#594E41" points="1747.324,955.947 1631.717,989.043 1630.874,985.979 1746.968,954.65 "/> <rect x="1611.856" y="958.966" fill="#B2786B" width="4.403" height="10.753"/> <circle fill="#DCA089" cx="1616.577" cy="938.616" r="24.392"/> <ellipse fill="#CE8F7C" cx="1616.577" cy="942.643" rx="3.249" ry="6.39"/> <ellipse fill="#B2786B" cx="1617.412" cy="942.643" rx="1.807" ry="5.192"/> <polygon fill="#1B412E" points="1668.962,935.844 1562.249,935.844 1591.022,930.596 1640.189,930.596 "/> <path fill="#1B412E" d="M1641.025,931.825l2.653-28.027c0-6.124-4.964-11.087-11.087-11.087h-32.031 c-6.123,0-11.087,4.964-11.087,11.087l2.655,28.027H1641.025z"/> <path fill="#1B412E" d="M1625.078,999.136c0,3.801-3.082,6.883-6.883,6.883h-8.327c-3.802,0-6.884-3.082-6.884-6.883v-26.004 c0.971-13.334,22.094-11.671,22.094-0.832V999.136z"/> <circle fill="#DCA089" cx="1640.863" cy="945.378" r="2.815"/> <ellipse fill="#594E41" cx="1634.972" cy="942.277" rx="1.143" ry="1.976"/> <ellipse fill="#C98D45" cx="1614.447" cy="976.432" rx="8.627" ry="9.983"/> <path fill="#DCA089" d="M1632.566,990.57l-18.937-12.125c-2.349-0.758-3.639-3.277-2.881-5.627l0,0 c0.757-2.35,3.276-3.639,5.626-2.881l19.616,10.359C1642.283,982.427,1639.93,992.577,1632.566,990.57z"/> <ellipse fill="#CAD8AD" cx="1317.067" cy="1490.349" rx="401" ry="380.632"/> <path fill="#A0B380" d="M1238.592,1380.77c8.87,26.973,13.973,58.56,13.973,92.326c0,34.35-5.28,66.445-14.436,93.722v0.237 c54.196,0,98.13-41.704,98.13-93.146C1336.259,1422.614,1292.574,1381.007,1238.592,1380.77z"/> <path fill="#A0B380" d="M1507.862,1155.481c-20.23,96.129-31.795,207.464-31.795,326.145c0,125.185,12.866,242.2,35.197,341.814 c123.324-64.92,206.802-189.751,206.802-333.092C1718.066,1345.691,1633.052,1219.884,1507.862,1155.481z"/> <ellipse fill="#FFFFFF" cx="1627.629" cy="1446.265" rx="39.791" ry="65.495"/> <ellipse fill="#62665A" cx="1637.956" cy="1422.4" rx="20.099" ry="33.084"/> <path fill="#A0B380" d="M1714.512,1531.219l36-12.34c0.624-8.038,0.337-14.165,0.046-23.072 c-1.459-44.549-25.963-83.244-40.776-82.807c-14.81,0.438-19.99,37.388-18.532,81.938c1.459,44.551,1.169,84.113,15.979,83.677 c8.688-0.257,24.783-10.852,33.751-36.134L1714.512,1531.219z"/> <path fill="#A0B380" d="M1860.35,1660.029c1.178,3.584,1.855,7.78,1.855,12.266c0,4.563-0.701,8.826-1.918,12.45v0.031 c7.2,0,13.036-5.54,13.036-12.373C1873.323,1665.589,1867.52,1660.062,1860.35,1660.029z"/> <path fill="#A0B380" d="M1905.539,1620.01c3.336,2.41,5.514,5.474,6.057,8.996c0.551,3.584-0.661,7.172-3.219,10.433l0.004,0.024 c17.735-2.46,31.444-8.806,30.617-14.172C1938.174,1619.94,1923.21,1617.583,1905.539,1620.01z"/> <path fill="#A0B380" d="M1914.248,1707.402c3.336,2.41,5.514,5.474,6.057,8.997c0.551,3.583-0.661,7.171-3.219,10.432l0.004,0.025 c17.736-2.461,31.444-8.806,30.617-14.173C1946.883,1707.333,1931.919,1704.976,1914.248,1707.402z"/> <ellipse fill="#CAD8AD" cx="1924.734" cy="1672.403" rx="53.27" ry="50.563"/> <path fill="#A0B380" d="M1914.311,1657.847c1.178,3.583,1.855,7.779,1.855,12.265c0,4.563-0.701,8.827-1.918,12.45v0.032 c7.2,0,13.036-5.541,13.036-12.375C1927.284,1663.405,1921.481,1657.878,1914.311,1657.847z"/> <path fill="#A0B380" d="M1950.08,1627.919c-2.688,12.771-4.224,27.56-4.224,43.326c0,16.629,1.709,32.174,4.677,45.407 c16.382-8.625,27.471-25.208,27.471-44.249C1978.004,1653.188,1966.711,1636.475,1950.08,1627.919z"/> <ellipse fill="#FFFFFF" cx="1965.991" cy="1666.547" rx="5.286" ry="8.701"/> <ellipse fill="#62665A" cx="1967.362" cy="1663.377" rx="2.67" ry="4.395"/> <path fill="#A0B380" d="M1977.532,1677.833l4.782-1.64c0.083-1.068,0.045-1.882,0.006-3.064 c-0.193-5.918-3.448-11.059-5.416-11.001c-1.968,0.059-2.656,4.967-2.462,10.886c0.193,5.917,0.154,11.173,2.122,11.115 c1.154-0.034,3.292-1.442,4.484-4.801L1977.532,1677.833z"/> <path fill="#A0B380" d="M1982.427,1384.279c1.178,3.584,1.855,7.78,1.855,12.266c0,4.563-0.701,8.826-1.918,12.45v0.031 c7.2,0,13.036-5.54,13.036-12.373C1995.4,1389.839,1989.597,1384.312,1982.427,1384.279z"/> <path fill="#A0B380" d="M2027.616,1344.26c3.336,2.41,5.514,5.474,6.057,8.996c0.551,3.584-0.661,7.172-3.219,10.433l0.004,0.024 c17.735-2.46,31.444-8.806,30.617-14.172C2060.251,1344.19,2045.287,1341.833,2027.616,1344.26z"/> <path fill="#A0B380" d="M2036.325,1431.652c3.336,2.41,5.514,5.474,6.057,8.997c0.551,3.583-0.661,7.171-3.219,10.432l0.004,0.025 c17.736-2.461,31.444-8.806,30.617-14.173C2068.96,1431.583,2053.996,1429.226,2036.325,1431.652z"/> <ellipse fill="#CAD8AD" cx="2046.812" cy="1396.653" rx="53.27" ry="50.563"/> <path fill="#A0B380" d="M2036.388,1382.097c1.178,3.583,1.855,7.779,1.855,12.265c0,4.563-0.701,8.827-1.918,12.45v0.032 c7.2,0,13.036-5.541,13.036-12.375C2049.361,1387.655,2043.559,1382.128,2036.388,1382.097z"/> <path fill="#A0B380" d="M2072.157,1352.169c-2.688,12.771-4.224,27.56-4.224,43.326c0,16.629,1.709,32.174,4.677,45.407 c16.382-8.625,27.471-25.208,27.471-44.249C2100.081,1377.438,2088.788,1360.725,2072.157,1352.169z"/> <ellipse fill="#FFFFFF" cx="2088.068" cy="1390.797" rx="5.286" ry="8.701"/> <ellipse fill="#62665A" cx="2089.439" cy="1387.627" rx="2.67" ry="4.395"/> <path fill="#A0B380" d="M2099.609,1402.083l4.782-1.64c0.083-1.068,0.045-1.882,0.006-3.064 c-0.193-5.918-3.448-11.059-5.416-11.001c-1.968,0.059-2.656,4.967-2.462,10.886c0.193,5.917,0.154,11.173,2.122,11.115 c1.154-0.034,3.292-1.442,4.484-4.801L2099.609,1402.083z"/> <path fill="#A0B380" d="M702.74,1229.459c1.178,3.584,1.855,7.78,1.855,12.266c0,4.563-0.701,8.826-1.918,12.45v0.031 c7.2,0,13.036-5.54,13.036-12.373C715.714,1235.019,709.91,1229.491,702.74,1229.459z"/> <path fill="#A0B380" d="M747.93,1189.439c3.336,2.41,5.514,5.474,6.057,8.996c0.551,3.584-0.661,7.172-3.219,10.433l0.004,0.024 c17.735-2.46,31.444-8.806,30.617-14.172C780.564,1189.37,765.601,1187.013,747.93,1189.439z"/> <path fill="#A0B380" d="M756.639,1276.832c3.336,2.41,5.514,5.474,6.057,8.997c0.551,3.583-0.661,7.171-3.219,10.432l0.004,0.025 c17.736-2.461,31.444-8.806,30.617-14.173C789.273,1276.763,774.31,1274.405,756.639,1276.832z"/> <ellipse fill="#CAD8AD" cx="767.125" cy="1241.833" rx="53.27" ry="50.563"/> <path fill="#A0B380" d="M756.701,1227.276c1.178,3.583,1.855,7.779,1.855,12.265c0,4.563-0.701,8.827-1.918,12.45v0.032 c7.2,0,13.036-5.541,13.036-12.375C769.675,1232.835,763.872,1227.308,756.701,1227.276z"/> <path fill="#A0B380" d="M792.471,1197.349c-2.688,12.771-4.224,27.56-4.224,43.326c0,16.629,1.709,32.174,4.677,45.407 c16.382-8.625,27.471-25.208,27.471-44.249C820.395,1222.617,809.102,1205.904,792.471,1197.349z"/> <ellipse fill="#FFFFFF" cx="808.381" cy="1235.977" rx="5.286" ry="8.701"/> <ellipse fill="#62665A" cx="809.753" cy="1232.807" rx="2.67" ry="4.395"/> <path fill="#A0B380" d="M819.923,1247.263l4.782-1.64c0.083-1.068,0.045-1.882,0.006-3.064c-0.193-5.918-3.448-11.059-5.416-11.001 c-1.968,0.059-2.656,4.967-2.462,10.886c0.193,5.917,0.154,11.173,2.122,11.115c1.154-0.034,3.292-1.442,4.484-4.801 L819.923,1247.263z"/> <path fill="#A0B380" d="M686.954,1787.599c1.178,3.584,1.855,7.78,1.855,12.266c0,4.563-0.701,8.826-1.918,12.45v0.031 c7.2,0,13.036-5.54,13.036-12.373C699.928,1793.158,694.124,1787.631,686.954,1787.599z"/> <path fill="#A0B380" d="M732.144,1747.579c3.336,2.41,5.514,5.474,6.057,8.996c0.551,3.584-0.661,7.172-3.219,10.433l0.004,0.024 c17.735-2.46,31.444-8.806,30.617-14.172C764.778,1747.51,749.814,1745.152,732.144,1747.579z"/> <path fill="#A0B380" d="M740.853,1834.972c3.336,2.41,5.514,5.474,6.057,8.997c0.551,3.583-0.661,7.171-3.219,10.432l0.004,0.025 c17.736-2.461,31.444-8.806,30.617-14.173C773.487,1834.902,758.523,1832.545,740.853,1834.972z"/> <ellipse fill="#CAD8AD" cx="751.339" cy="1799.973" rx="53.27" ry="50.563"/> <path fill="#A0B380" d="M740.915,1785.416c1.178,3.583,1.855,7.779,1.855,12.265c0,4.563-0.701,8.827-1.918,12.45v0.032 c7.2,0,13.036-5.541,13.036-12.375C753.889,1790.975,748.086,1785.447,740.915,1785.416z"/> <path fill="#A0B380" d="M776.685,1755.488c-2.688,12.771-4.224,27.56-4.224,43.326c0,16.629,1.709,32.174,4.677,45.407 c16.382-8.625,27.471-25.208,27.471-44.249C804.608,1780.757,793.315,1764.044,776.685,1755.488z"/> <ellipse fill="#FFFFFF" cx="792.595" cy="1794.116" rx="5.286" ry="8.701"/> <ellipse fill="#62665A" cx="793.967" cy="1790.946" rx="2.67" ry="4.395"/> <path fill="#A0B380" d="M804.137,1805.402l4.782-1.64c0.083-1.068,0.045-1.882,0.006-3.064c-0.193-5.918-3.448-11.059-5.416-11.001 c-1.968,0.059-2.656,4.967-2.462,10.886c0.193,5.917,0.154,11.173,2.122,11.115c1.154-0.034,3.292-1.442,4.484-4.801 L804.137,1805.402z"/> <path fill="#A0B380" d="M685.467,1549.063c-0.575,1.751-0.906,3.802-0.906,5.993c0,2.229,0.342,4.312,0.937,6.082v0.016 c-3.518,0-6.369-2.707-6.369-6.045C679.128,1551.779,681.964,1549.079,685.467,1549.063z"/> <path fill="#A0B380" d="M663.388,1529.511c-1.63,1.178-2.694,2.675-2.959,4.396c-0.269,1.751,0.323,3.504,1.573,5.097l-0.002,0.013 c-8.665-1.202-15.363-4.303-14.959-6.925C647.444,1529.477,654.755,1528.325,663.388,1529.511z"/> <path fill="#A0B380" d="M659.133,1572.209c-1.63,1.178-2.694,2.674-2.959,4.396c-0.269,1.751,0.323,3.504,1.572,5.097l-0.001,0.013 c-8.666-1.202-15.363-4.302-14.959-6.925C643.188,1572.175,650.5,1571.023,659.133,1572.209z"/> <ellipse fill="#CAD8AD" cx="654.01" cy="1555.109" rx="26.026" ry="24.704"/> <path fill="#A0B380" d="M659.103,1547.997c-0.575,1.751-0.906,3.801-0.906,5.992c0,2.229,0.343,4.313,0.937,6.083v0.016 c-3.518,0-6.369-2.707-6.369-6.046C652.764,1550.713,655.599,1548.013,659.103,1547.997z"/> <path fill="#A0B380" d="M641.626,1533.375c1.313,6.239,2.063,13.465,2.063,21.168c0,8.125-0.835,15.72-2.285,22.186 c-8.004-4.214-13.422-12.316-13.422-21.619C627.983,1545.721,633.501,1537.555,641.626,1533.375z"/> <ellipse fill="#FFFFFF" cx="633.853" cy="1552.248" rx="2.583" ry="4.251"/> <ellipse fill="#62665A" cx="633.183" cy="1550.699" rx="1.304" ry="2.146"/> <path fill="#A0B380" d="M628.214,1557.762l-2.336-0.801c-0.041-0.521-0.022-0.92-0.003-1.497c0.095-2.892,1.685-5.403,2.646-5.375 s1.298,2.427,1.203,5.318s-0.076,5.459-1.037,5.431c-0.564-0.017-1.608-0.705-2.191-2.346L628.214,1557.762z"/> <path fill="#A0B380" d="M1030.79,1874.445c-0.575,1.751-0.906,3.802-0.906,5.993c0,2.229,0.342,4.312,0.937,6.082v0.016 c-3.518,0-6.369-2.707-6.369-6.045C1024.451,1877.161,1027.287,1874.461,1030.79,1874.445z"/> <path fill="#A0B380" d="M1008.711,1854.893c-1.63,1.178-2.694,2.675-2.959,4.396c-0.269,1.751,0.323,3.504,1.573,5.097 l-0.002,0.013c-8.665-1.202-15.363-4.303-14.959-6.925C992.767,1854.858,1000.078,1853.707,1008.711,1854.893z"/> <path fill="#A0B380" d="M1004.456,1897.591c-1.63,1.178-2.694,2.674-2.959,4.396c-0.269,1.751,0.323,3.504,1.572,5.097 l-0.001,0.013c-8.666-1.202-15.363-4.302-14.959-6.925C988.511,1897.557,995.822,1896.405,1004.456,1897.591z"/> <ellipse fill="#CAD8AD" cx="999.333" cy="1880.491" rx="26.026" ry="24.704"/> <path fill="#A0B380" d="M1004.425,1873.379c-0.575,1.751-0.906,3.801-0.906,5.992c0,2.229,0.343,4.313,0.937,6.083v0.016 c-3.518,0-6.369-2.707-6.369-6.046C998.087,1876.095,1000.922,1873.395,1004.425,1873.379z"/> <path fill="#A0B380" d="M986.949,1858.757c1.313,6.239,2.063,13.465,2.063,21.168c0,8.125-0.835,15.72-2.285,22.186 c-8.004-4.214-13.422-12.316-13.422-21.619C973.306,1871.103,978.824,1862.937,986.949,1858.757z"/> <ellipse fill="#FFFFFF" cx="979.176" cy="1877.63" rx="2.583" ry="4.251"/> <ellipse fill="#62665A" cx="978.506" cy="1876.081" rx="1.304" ry="2.146"/> <path fill="#A0B380" d="M973.537,1883.144l-2.336-0.801c-0.041-0.521-0.022-0.92-0.003-1.497c0.095-2.892,1.685-5.403,2.646-5.375 s1.298,2.427,1.203,5.318s-0.076,5.459-1.037,5.431c-0.564-0.017-1.608-0.705-2.191-2.346L973.537,1883.144z"/> <path fill="#A0B380" d="M636.405,1875.565c-0.575,1.751-0.906,3.802-0.906,5.993c0,2.229,0.342,4.312,0.937,6.082v0.016 c-3.518,0-6.369-2.707-6.369-6.045C630.066,1878.281,632.902,1875.581,636.405,1875.565z"/> <path fill="#A0B380" d="M614.326,1856.013c-1.63,1.178-2.694,2.675-2.959,4.396c-0.269,1.751,0.323,3.504,1.573,5.097l-0.002,0.013 c-8.665-1.202-15.363-4.303-14.959-6.925C598.382,1855.979,605.693,1854.827,614.326,1856.013z"/> <path fill="#A0B380" d="M610.071,1898.711c-1.63,1.178-2.694,2.674-2.959,4.396c-0.269,1.751,0.323,3.504,1.572,5.097l-0.001,0.013 c-8.666-1.202-15.363-4.302-14.959-6.925C594.126,1898.677,601.438,1897.525,610.071,1898.711z"/> <ellipse fill="#CAD8AD" cx="604.948" cy="1881.611" rx="26.026" ry="24.704"/> <path fill="#A0B380" d="M610.041,1874.499c-0.575,1.751-0.906,3.801-0.906,5.992c0,2.229,0.343,4.313,0.937,6.083v0.016 c-3.518,0-6.369-2.707-6.369-6.046C603.702,1877.215,606.537,1874.515,610.041,1874.499z"/> <path fill="#A0B380" d="M592.564,1859.877c1.313,6.239,2.063,13.465,2.063,21.168c0,8.125-0.835,15.72-2.285,22.186 c-8.004-4.214-13.422-12.316-13.422-21.619C578.921,1872.223,584.439,1864.057,592.564,1859.877z"/> <ellipse fill="#FFFFFF" cx="584.791" cy="1878.75" rx="2.583" ry="4.251"/> <ellipse fill="#62665A" cx="584.121" cy="1877.201" rx="1.304" ry="2.146"/> <path fill="#A0B380" d="M579.152,1884.264l-2.336-0.801c-0.041-0.521-0.022-0.92-0.003-1.497c0.095-2.892,1.685-5.403,2.646-5.375 s1.298,2.427,1.203,5.318s-0.076,5.459-1.037,5.431c-0.564-0.017-1.608-0.705-2.191-2.346L579.152,1884.264z"/> <path fill="#A0B380" d="M910.779,1320.858c-0.575,1.751-0.906,3.802-0.906,5.993c0,2.229,0.342,4.312,0.937,6.082v0.016 c-3.518,0-6.369-2.707-6.369-6.045C904.44,1323.574,907.276,1320.874,910.779,1320.858z"/> <path fill="#A0B380" d="M888.7,1301.306c-1.63,1.178-2.694,2.675-2.959,4.396c-0.269,1.751,0.323,3.504,1.573,5.097l-0.002,0.013 c-8.665-1.202-15.363-4.303-14.959-6.925C872.756,1301.271,880.067,1300.12,888.7,1301.306z"/> <path fill="#A0B380" d="M884.445,1344.004c-1.63,1.178-2.694,2.674-2.959,4.396c-0.269,1.751,0.323,3.504,1.572,5.097l-0.001,0.013 c-8.666-1.202-15.363-4.302-14.959-6.925C868.5,1343.97,875.812,1342.818,884.445,1344.004z"/> <ellipse fill="#CAD8AD" cx="879.322" cy="1326.904" rx="26.026" ry="24.704"/> <path fill="#A0B380" d="M884.415,1319.792c-0.575,1.751-0.906,3.801-0.906,5.992c0,2.229,0.343,4.313,0.937,6.083v0.016 c-3.518,0-6.369-2.707-6.369-6.046C878.076,1322.508,880.911,1319.808,884.415,1319.792z"/> <path fill="#A0B380" d="M866.938,1305.17c1.313,6.239,2.063,13.465,2.063,21.168c0,8.125-0.835,15.72-2.285,22.186 c-8.004-4.214-13.422-12.316-13.422-21.619C853.295,1317.516,858.813,1309.35,866.938,1305.17z"/> <ellipse fill="#FFFFFF" cx="859.165" cy="1324.043" rx="2.583" ry="4.251"/> <ellipse fill="#62665A" cx="858.495" cy="1322.494" rx="1.304" ry="2.146"/> <path fill="#A0B380" d="M853.526,1329.557l-2.336-0.801c-0.041-0.521-0.022-0.92-0.003-1.497c0.095-2.892,1.685-5.403,2.646-5.375 s1.298,2.427,1.203,5.318s-0.076,5.459-1.037,5.431c-0.564-0.017-1.608-0.705-2.191-2.346L853.526,1329.557z"/> <path fill="#A0B380" d="M627.753,1289.971c-0.575,1.751-0.906,3.802-0.906,5.993c0,2.229,0.342,4.312,0.937,6.082v0.016 c-3.518,0-6.369-2.707-6.369-6.045C621.415,1292.687,624.25,1289.986,627.753,1289.971z"/> <path fill="#A0B380" d="M605.674,1270.418c-1.63,1.178-2.694,2.675-2.959,4.396c-0.269,1.751,0.323,3.504,1.573,5.097l-0.002,0.013 c-8.665-1.202-15.363-4.303-14.959-6.925C589.73,1270.384,597.041,1269.232,605.674,1270.418z"/> <path fill="#A0B380" d="M601.419,1313.116c-1.63,1.178-2.694,2.674-2.959,4.396c-0.269,1.751,0.323,3.504,1.572,5.097l-0.001,0.013 c-8.666-1.202-15.363-4.302-14.959-6.925C585.475,1313.082,592.786,1311.931,601.419,1313.116z"/> <ellipse fill="#CAD8AD" cx="596.296" cy="1296.017" rx="26.026" ry="24.704"/> <path fill="#A0B380" d="M601.389,1288.904c-0.575,1.751-0.906,3.801-0.906,5.992c0,2.229,0.343,4.313,0.937,6.083v0.016 c-3.518,0-6.369-2.707-6.369-6.046C595.05,1291.62,597.885,1288.92,601.389,1288.904z"/> <path fill="#A0B380" d="M583.913,1274.282c1.313,6.239,2.063,13.465,2.063,21.168c0,8.125-0.835,15.72-2.285,22.186 c-8.004-4.214-13.422-12.316-13.422-21.619C570.27,1286.628,575.787,1278.462,583.913,1274.282z"/> <ellipse fill="#FFFFFF" cx="576.139" cy="1293.155" rx="2.583" ry="4.251"/> <ellipse fill="#62665A" cx="575.469" cy="1291.606" rx="1.304" ry="2.146"/> <path fill="#A0B380" d="M570.5,1298.669l-2.336-0.801c-0.041-0.521-0.022-0.92-0.003-1.497c0.095-2.892,1.685-5.403,2.646-5.375 s1.298,2.427,1.203,5.318s-0.076,5.459-1.037,5.431c-0.564-0.017-1.608-0.705-2.191-2.346L570.5,1298.669z"/> <path fill="#A0B380" d="M907.867,1676.278c-0.575,1.751-0.906,3.802-0.906,5.993c0,2.229,0.342,4.312,0.937,6.082v0.016 c-3.518,0-6.369-2.707-6.369-6.045C901.529,1678.994,904.364,1676.294,907.867,1676.278z"/> <path fill="#A0B380" d="M885.789,1656.726c-1.63,1.178-2.694,2.675-2.959,4.396c-0.269,1.751,0.323,3.504,1.573,5.097l-0.002,0.013 c-8.665-1.202-15.363-4.303-14.959-6.925C869.844,1656.691,877.155,1655.54,885.789,1656.726z"/> <path fill="#A0B380" d="M881.534,1699.424c-1.63,1.178-2.694,2.674-2.959,4.396c-0.269,1.751,0.323,3.504,1.572,5.097l-0.001,0.013 c-8.666-1.202-15.363-4.302-14.959-6.925C865.589,1699.39,872.9,1698.238,881.534,1699.424z"/> <ellipse fill="#CAD8AD" cx="876.41" cy="1682.324" rx="26.026" ry="24.704"/> <path fill="#A0B380" d="M881.503,1675.212c-0.575,1.751-0.906,3.801-0.906,5.992c0,2.229,0.343,4.313,0.937,6.083v0.016 c-3.518,0-6.369-2.707-6.369-6.046C875.165,1677.928,878,1675.228,881.503,1675.212z"/> <path fill="#A0B380" d="M864.027,1660.59c1.313,6.239,2.063,13.465,2.063,21.168c0,8.125-0.835,15.72-2.285,22.186 c-8.004-4.214-13.422-12.316-13.422-21.619C850.384,1672.936,855.901,1664.77,864.027,1660.59z"/> <ellipse fill="#FFFFFF" cx="856.253" cy="1679.463" rx="2.583" ry="4.251"/> <ellipse fill="#62665A" cx="855.583" cy="1677.914" rx="1.304" ry="2.146"/> <path fill="#A0B380" d="M850.614,1684.977l-2.336-0.801c-0.041-0.521-0.022-0.92-0.003-1.497c0.095-2.892,1.685-5.403,2.646-5.375 s1.298,2.427,1.203,5.318s-0.076,5.459-1.037,5.431c-0.564-0.017-1.608-0.705-2.191-2.346L850.614,1684.977z"/> <path fill="#A0B380" d="M1802.553,1831.719c-0.574,1.751-0.906,3.802-0.906,5.993c0,2.229,0.343,4.312,0.938,6.082v0.016 c-3.518,0-6.369-2.707-6.369-6.045C1796.215,1834.435,1799.051,1831.734,1802.553,1831.719z"/> <path fill="#A0B380" d="M1780.475,1812.166c-1.63,1.178-2.693,2.675-2.959,4.396c-0.27,1.751,0.323,3.504,1.572,5.097l-0.002,0.013 c-8.664-1.202-15.363-4.303-14.959-6.925C1764.53,1812.132,1771.842,1810.98,1780.475,1812.166z"/> <path fill="#A0B380" d="M1776.22,1854.864c-1.63,1.178-2.694,2.674-2.959,4.396c-0.269,1.751,0.323,3.504,1.572,5.097l-0.001,0.013 c-8.666-1.202-15.363-4.302-14.959-6.925C1760.275,1854.83,1767.586,1853.679,1776.22,1854.864z"/> <ellipse fill="#CAD8AD" cx="1771.097" cy="1837.765" rx="26.026" ry="24.704"/> <path fill="#A0B380" d="M1776.189,1830.652c-0.576,1.751-0.906,3.801-0.906,5.992c0,2.229,0.342,4.313,0.937,6.083v0.016 c-3.519,0-6.369-2.707-6.369-6.046C1769.851,1833.368,1772.686,1830.668,1776.189,1830.652z"/> <path fill="#A0B380" d="M1758.713,1816.03c1.313,6.239,2.063,13.465,2.063,21.168c0,8.125-0.835,15.72-2.284,22.186 c-8.004-4.214-13.422-12.316-13.422-21.619C1745.07,1828.376,1750.588,1820.21,1758.713,1816.03z"/> <ellipse fill="#FFFFFF" cx="1750.939" cy="1834.903" rx="2.582" ry="4.251"/> <ellipse fill="#62665A" cx="1750.27" cy="1833.354" rx="1.305" ry="2.146"/> <path fill="#A0B380" d="M1745.301,1840.417l-2.337-0.801c-0.04-0.521-0.022-0.92-0.003-1.497c0.095-2.892,1.685-5.403,2.646-5.375 c0.961,0.028,1.297,2.427,1.203,5.318c-0.096,2.892-0.076,5.459-1.037,5.431c-0.564-0.017-1.609-0.705-2.191-2.346 L1745.301,1840.417z"/> <path fill="#A0B380" d="M1935.33,1484.033c-0.574,1.751-0.906,3.802-0.906,5.993c0,2.229,0.343,4.312,0.938,6.082v0.016 c-3.518,0-6.369-2.707-6.369-6.045C1928.992,1486.749,1931.828,1484.049,1935.33,1484.033z"/> <path fill="#A0B380" d="M1913.252,1464.48c-1.63,1.178-2.693,2.675-2.959,4.396c-0.27,1.751,0.323,3.504,1.572,5.097l-0.002,0.013 c-8.664-1.202-15.363-4.303-14.959-6.925C1897.308,1464.446,1904.619,1463.295,1913.252,1464.48z"/> <path fill="#A0B380" d="M1908.997,1507.179c-1.63,1.178-2.694,2.674-2.959,4.396c-0.269,1.751,0.323,3.504,1.572,5.097 l-0.001,0.013c-8.666-1.202-15.363-4.302-14.959-6.925C1893.053,1507.145,1900.363,1505.993,1908.997,1507.179z"/> <ellipse fill="#CAD8AD" cx="1903.874" cy="1490.079" rx="26.026" ry="24.704"/> <path fill="#A0B380" d="M1908.967,1482.967c-0.576,1.751-0.906,3.801-0.906,5.992c0,2.229,0.342,4.313,0.937,6.083v0.016 c-3.519,0-6.369-2.707-6.369-6.046C1902.628,1485.683,1905.463,1482.982,1908.967,1482.967z"/> <path fill="#A0B380" d="M1891.49,1468.345c1.313,6.239,2.063,13.465,2.063,21.168c0,8.125-0.835,15.72-2.284,22.186 c-8.004-4.214-13.422-12.316-13.422-21.619C1877.848,1480.69,1883.365,1472.524,1891.49,1468.345z"/> <ellipse fill="#FFFFFF" cx="1883.717" cy="1487.218" rx="2.582" ry="4.251"/> <ellipse fill="#62665A" cx="1883.047" cy="1485.669" rx="1.305" ry="2.146"/> <path fill="#A0B380" d="M1878.078,1492.731l-2.337-0.801c-0.04-0.521-0.022-0.92-0.003-1.497c0.095-2.892,1.685-5.403,2.646-5.375 c0.961,0.028,1.297,2.427,1.203,5.318c-0.096,2.892-0.076,5.459-1.037,5.431c-0.564-0.017-1.609-0.705-2.191-2.346 L1878.078,1492.731z"/> <path fill="#A0B380" d="M1790.567,1314.031c-0.574,1.751-0.906,3.802-0.906,5.993c0,2.229,0.343,4.312,0.938,6.082v0.016 c-3.518,0-6.369-2.707-6.369-6.045C1784.229,1316.747,1787.065,1314.047,1790.567,1314.031z"/> <path fill="#A0B380" d="M1768.489,1294.479c-1.63,1.178-2.693,2.675-2.959,4.396c-0.27,1.751,0.323,3.504,1.572,5.097l-0.002,0.013 c-8.664-1.202-15.363-4.303-14.959-6.925C1752.545,1294.444,1759.856,1293.293,1768.489,1294.479z"/> <path fill="#A0B380" d="M1764.234,1337.177c-1.63,1.178-2.694,2.674-2.959,4.396c-0.269,1.751,0.323,3.504,1.572,5.097 l-0.001,0.013c-8.666-1.202-15.363-4.302-14.959-6.925C1748.29,1337.143,1755.601,1335.991,1764.234,1337.177z"/> <ellipse fill="#CAD8AD" cx="1759.111" cy="1320.077" rx="26.026" ry="24.704"/> <path fill="#A0B380" d="M1764.204,1312.965c-0.576,1.751-0.906,3.801-0.906,5.992c0,2.229,0.342,4.313,0.937,6.083v0.016 c-3.519,0-6.369-2.707-6.369-6.046C1757.865,1315.681,1760.7,1312.98,1764.204,1312.965z"/> <path fill="#A0B380" d="M1746.728,1298.343c1.313,6.239,2.063,13.465,2.063,21.168c0,8.125-0.835,15.72-2.284,22.186 c-8.004-4.214-13.422-12.316-13.422-21.619C1733.085,1310.688,1738.603,1302.522,1746.728,1298.343z"/> <ellipse fill="#FFFFFF" cx="1738.954" cy="1317.216" rx="2.582" ry="4.251"/> <ellipse fill="#62665A" cx="1738.284" cy="1315.667" rx="1.305" ry="2.146"/> <path fill="#A0B380" d="M1733.315,1322.729l-2.337-0.801c-0.04-0.521-0.022-0.92-0.003-1.497c0.095-2.892,1.685-5.403,2.646-5.375 c0.961,0.028,1.297,2.427,1.203,5.318c-0.096,2.892-0.076,5.459-1.037,5.431c-0.564-0.017-1.609-0.705-2.191-2.346 L1733.315,1322.729z"/> <path fill="#A0B380" d="M2275.714,1262.404c-0.574,1.751-0.906,3.802-0.906,5.993c0,2.229,0.343,4.312,0.938,6.082v0.016 c-3.518,0-6.369-2.707-6.369-6.045C2269.376,1265.12,2272.212,1262.42,2275.714,1262.404z"/> <path fill="#A0B380" d="M2253.636,1242.852c-1.63,1.178-2.693,2.675-2.959,4.396c-0.27,1.751,0.323,3.504,1.572,5.097l-0.002,0.013 c-8.664-1.202-15.363-4.303-14.959-6.925C2237.691,1242.817,2245.003,1241.666,2253.636,1242.852z"/> <path fill="#A0B380" d="M2249.381,1285.55c-1.63,1.178-2.694,2.674-2.959,4.396c-0.269,1.751,0.323,3.504,1.572,5.097l-0.001,0.013 c-8.666-1.202-15.363-4.302-14.959-6.925C2233.437,1285.516,2240.747,1284.364,2249.381,1285.55z"/> <ellipse fill="#CAD8AD" cx="2244.258" cy="1268.45" rx="26.026" ry="24.704"/> <path fill="#A0B380" d="M2249.351,1261.338c-0.576,1.751-0.906,3.801-0.906,5.992c0,2.229,0.342,4.313,0.937,6.083v0.016 c-3.519,0-6.369-2.707-6.369-6.046C2243.012,1264.054,2245.847,1261.354,2249.351,1261.338z"/> <path fill="#A0B380" d="M2231.874,1246.716c1.313,6.239,2.063,13.465,2.063,21.168c0,8.125-0.835,15.72-2.284,22.186 c-8.004-4.214-13.422-12.316-13.422-21.619C2218.231,1259.062,2223.749,1250.896,2231.874,1246.716z"/> <ellipse fill="#FFFFFF" cx="2224.101" cy="1265.589" rx="2.582" ry="4.251"/> <ellipse fill="#62665A" cx="2223.431" cy="1264.04" rx="1.305" ry="2.146"/> <path fill="#A0B380" d="M2218.462,1271.103l-2.337-0.801c-0.04-0.521-0.022-0.92-0.003-1.497c0.095-2.892,1.685-5.403,2.646-5.375 c0.961,0.028,1.297,2.427,1.203,5.318c-0.096,2.892-0.076,5.459-1.037,5.431c-0.564-0.017-1.609-0.705-2.191-2.346 L2218.462,1271.103z"/> <path fill="#A0B380" d="M2275.987,1598.638c-0.574,1.751-0.906,3.802-0.906,5.993c0,2.229,0.343,4.312,0.938,6.082v0.016 c-3.518,0-6.369-2.707-6.369-6.045C2269.649,1601.354,2272.485,1598.653,2275.987,1598.638z"/> <path fill="#A0B380" d="M2253.909,1579.085c-1.63,1.178-2.693,2.675-2.959,4.396c-0.27,1.751,0.323,3.504,1.572,5.097l-0.002,0.013 c-8.664-1.202-15.363-4.303-14.959-6.925C2237.965,1579.051,2245.276,1577.899,2253.909,1579.085z"/> <path fill="#A0B380" d="M2249.654,1621.783c-1.63,1.178-2.694,2.674-2.959,4.396c-0.269,1.751,0.323,3.504,1.572,5.097 l-0.001,0.013c-8.666-1.202-15.363-4.302-14.959-6.925C2233.71,1621.749,2241.021,1620.598,2249.654,1621.783z"/> <ellipse fill="#CAD8AD" cx="2244.531" cy="1604.684" rx="26.026" ry="24.704"/> <path fill="#A0B380" d="M2249.624,1597.571c-0.576,1.751-0.906,3.801-0.906,5.992c0,2.229,0.342,4.313,0.937,6.083v0.016 c-3.519,0-6.369-2.707-6.369-6.046C2243.285,1600.287,2246.12,1597.587,2249.624,1597.571z"/> <path fill="#A0B380" d="M2232.147,1582.949c1.313,6.239,2.063,13.465,2.063,21.168c0,8.125-0.835,15.72-2.284,22.186 c-8.004-4.214-13.422-12.316-13.422-21.619C2218.505,1595.295,2224.022,1587.129,2232.147,1582.949z"/> <ellipse fill="#FFFFFF" cx="2224.374" cy="1601.822" rx="2.582" ry="4.251"/> <ellipse fill="#62665A" cx="2223.704" cy="1600.273" rx="1.305" ry="2.146"/> <path fill="#A0B380" d="M2218.735,1607.336l-2.337-0.801c-0.04-0.521-0.022-0.92-0.003-1.497c0.095-2.892,1.685-5.403,2.646-5.375 c0.961,0.028,1.297,2.427,1.203,5.318c-0.096,2.892-0.076,5.459-1.037,5.431c-0.564-0.017-1.609-0.705-2.191-2.346 L2218.735,1607.336z"/> <path fill="#A0B380" d="M2164.055,1770.553c-0.574,1.751-0.906,3.802-0.906,5.993c0,2.229,0.343,4.312,0.938,6.082v0.016 c-3.518,0-6.369-2.707-6.369-6.045C2157.717,1773.269,2160.553,1770.568,2164.055,1770.553z"/> <path fill="#A0B380" d="M2141.977,1751c-1.63,1.178-2.693,2.675-2.959,4.396c-0.27,1.751,0.323,3.504,1.572,5.097l-0.002,0.013 c-8.664-1.202-15.363-4.303-14.959-6.925C2126.032,1750.966,2133.344,1749.814,2141.977,1751z"/> <path fill="#A0B380" d="M2137.722,1793.698c-1.63,1.178-2.694,2.674-2.959,4.396c-0.269,1.751,0.323,3.504,1.572,5.097 l-0.001,0.013c-8.666-1.202-15.363-4.302-14.959-6.925C2121.777,1793.664,2129.088,1792.513,2137.722,1793.698z"/> <ellipse fill="#CAD8AD" cx="2132.599" cy="1776.599" rx="26.026" ry="24.704"/> <path fill="#A0B380" d="M2137.691,1769.486c-0.576,1.751-0.906,3.801-0.906,5.992c0,2.229,0.342,4.313,0.937,6.083v0.016 c-3.519,0-6.369-2.707-6.369-6.046C2131.353,1772.202,2134.188,1769.502,2137.691,1769.486z"/> <path fill="#A0B380" d="M2120.215,1754.864c1.313,6.239,2.063,13.465,2.063,21.168c0,8.125-0.835,15.72-2.284,22.186 c-8.004-4.214-13.422-12.316-13.422-21.619C2106.572,1767.21,2112.09,1759.044,2120.215,1754.864z"/> <ellipse fill="#FFFFFF" cx="2112.441" cy="1773.737" rx="2.582" ry="4.251"/> <ellipse fill="#62665A" cx="2111.771" cy="1772.188" rx="1.305" ry="2.146"/> <path fill="#A0B380" d="M2106.803,1779.251l-2.337-0.801c-0.04-0.521-0.022-0.92-0.003-1.497c0.095-2.892,1.685-5.403,2.646-5.375 c0.961,0.028,1.297,2.427,1.203,5.318c-0.096,2.892-0.076,5.459-1.037,5.431c-0.564-0.017-1.609-0.705-2.191-2.346 L2106.803,1779.251z"/> <path fill="#A0B380" d="M2444.493,1434.587c-0.574,1.751-0.906,3.802-0.906,5.993c0,2.229,0.343,4.312,0.938,6.082v0.016 c-3.518,0-6.369-2.707-6.369-6.045C2438.155,1437.303,2440.991,1434.603,2444.493,1434.587z"/> <path fill="#A0B380" d="M2422.415,1415.034c-1.63,1.178-2.693,2.675-2.959,4.396c-0.27,1.751,0.323,3.504,1.572,5.097l-0.002,0.013 c-8.664-1.202-15.363-4.303-14.959-6.925C2406.471,1415,2413.782,1413.849,2422.415,1415.034z"/> <path fill="#A0B380" d="M2418.16,1457.732c-1.63,1.178-2.694,2.674-2.959,4.396c-0.269,1.751,0.323,3.504,1.572,5.097l-0.001,0.013 c-8.666-1.202-15.363-4.302-14.959-6.925C2402.216,1457.698,2409.526,1456.547,2418.16,1457.732z"/> <ellipse fill="#CAD8AD" cx="2413.037" cy="1440.633" rx="26.026" ry="24.704"/> <path fill="#A0B380" d="M2418.13,1433.521c-0.576,1.751-0.906,3.801-0.906,5.992c0,2.229,0.342,4.313,0.937,6.083v0.016 c-3.519,0-6.369-2.707-6.369-6.046C2411.791,1436.236,2414.626,1433.536,2418.13,1433.521z"/> <path fill="#A0B380" d="M2400.653,1418.898c1.313,6.239,2.063,13.465,2.063,21.168c0,8.125-0.835,15.72-2.284,22.186 c-8.004-4.214-13.422-12.316-13.422-21.619C2387.011,1431.244,2392.528,1423.078,2400.653,1418.898z"/> <ellipse fill="#FFFFFF" cx="2392.88" cy="1437.771" rx="2.582" ry="4.251"/> <ellipse fill="#62665A" cx="2392.21" cy="1436.223" rx="1.305" ry="2.146"/> <path fill="#A0B380" d="M2387.241,1443.285l-2.337-0.801c-0.04-0.521-0.022-0.92-0.003-1.497c0.095-2.892,1.685-5.403,2.646-5.375 c0.961,0.028,1.297,2.427,1.203,5.318c-0.096,2.892-0.076,5.459-1.037,5.431c-0.564-0.017-1.609-0.705-2.191-2.346 L2387.241,1443.285z"/> <path fill="#A0B380" d="M2447.951,1853.068c-0.574,1.751-0.906,3.802-0.906,5.993c0,2.229,0.343,4.312,0.938,6.082v0.016 c-3.518,0-6.369-2.707-6.369-6.045C2441.613,1855.784,2444.449,1853.084,2447.951,1853.068z"/> <path fill="#A0B380" d="M2425.873,1833.516c-1.63,1.178-2.693,2.675-2.959,4.396c-0.27,1.751,0.323,3.504,1.572,5.097l-0.002,0.013 c-8.664-1.202-15.363-4.303-14.959-6.925C2409.929,1833.481,2417.24,1832.33,2425.873,1833.516z"/> <path fill="#A0B380" d="M2421.618,1876.214c-1.63,1.178-2.694,2.674-2.959,4.396c-0.269,1.751,0.323,3.504,1.572,5.097 l-0.001,0.013c-8.666-1.202-15.363-4.302-14.959-6.925C2405.674,1876.18,2412.984,1875.028,2421.618,1876.214z"/> <ellipse fill="#CAD8AD" cx="2416.495" cy="1859.114" rx="26.026" ry="24.704"/> <path fill="#A0B380" d="M2421.588,1852.002c-0.576,1.751-0.906,3.801-0.906,5.992c0,2.229,0.342,4.313,0.937,6.083v0.016 c-3.519,0-6.369-2.707-6.369-6.046C2415.249,1854.718,2418.084,1852.018,2421.588,1852.002z"/> <path fill="#A0B380" d="M2404.111,1837.38c1.313,6.239,2.063,13.465,2.063,21.168c0,8.125-0.835,15.72-2.284,22.186 c-8.004-4.214-13.422-12.316-13.422-21.619C2390.469,1849.726,2395.986,1841.56,2404.111,1837.38z"/> <ellipse fill="#FFFFFF" cx="2396.338" cy="1856.253" rx="2.582" ry="4.251"/> <ellipse fill="#62665A" cx="2395.668" cy="1854.704" rx="1.305" ry="2.146"/> <path fill="#A0B380" d="M2390.699,1861.767l-2.337-0.801c-0.04-0.521-0.022-0.92-0.003-1.497c0.095-2.892,1.685-5.403,2.646-5.375 c0.961,0.028,1.297,2.427,1.203,5.318c-0.096,2.892-0.076,5.459-1.037,5.431c-0.564-0.017-1.609-0.705-2.191-2.346 L2390.699,1861.767z"/> <path fill="#A0B380" d="M1586.189,1880.221c-0.574,1.751-0.906,3.802-0.906,5.993c0,2.229,0.343,4.312,0.938,6.082v0.016 c-3.518,0-6.369-2.707-6.369-6.045C1579.852,1882.937,1582.688,1880.236,1586.189,1880.221z"/> <path fill="#A0B380" d="M1564.111,1860.668c-1.63,1.178-2.693,2.675-2.959,4.396c-0.27,1.751,0.323,3.504,1.572,5.097l-0.002,0.013 c-8.664-1.202-15.363-4.303-14.959-6.925C1548.167,1860.634,1555.479,1859.482,1564.111,1860.668z"/> <path fill="#A0B380" d="M1559.856,1903.366c-1.63,1.178-2.694,2.674-2.959,4.396c-0.269,1.751,0.323,3.504,1.572,5.097 l-0.001,0.013c-8.666-1.202-15.363-4.302-14.959-6.925C1543.912,1903.332,1551.223,1902.181,1559.856,1903.366z"/> <ellipse fill="#CAD8AD" cx="1554.733" cy="1886.267" rx="26.026" ry="24.704"/> <path fill="#A0B380" d="M1559.826,1879.154c-0.576,1.751-0.906,3.801-0.906,5.992c0,2.229,0.342,4.313,0.937,6.083v0.016 c-3.519,0-6.369-2.707-6.369-6.046C1553.487,1881.87,1556.322,1879.17,1559.826,1879.154z"/> <path fill="#A0B380" d="M1542.35,1864.532c1.313,6.239,2.063,13.465,2.063,21.168c0,8.125-0.835,15.72-2.284,22.186 c-8.004-4.214-13.422-12.316-13.422-21.619C1528.707,1876.878,1534.225,1868.712,1542.35,1864.532z"/> <ellipse fill="#FFFFFF" cx="1534.576" cy="1883.405" rx="2.582" ry="4.251"/> <ellipse fill="#62665A" cx="1533.906" cy="1881.856" rx="1.305" ry="2.146"/> <path fill="#A0B380" d="M1528.938,1888.919l-2.337-0.801c-0.04-0.521-0.022-0.92-0.003-1.497c0.095-2.892,1.685-5.403,2.646-5.375 c0.961,0.028,1.297,2.427,1.203,5.318c-0.096,2.892-0.076,5.459-1.037,5.431c-0.564-0.017-1.609-0.705-2.191-2.346 L1528.938,1888.919z"/> <path fill="#A0B380" d="M1202.358,1890.192c-0.574,1.751-0.906,3.802-0.906,5.993c0,2.229,0.343,4.312,0.938,6.082v0.016 c-3.518,0-6.369-2.707-6.369-6.045C1196.021,1892.908,1198.856,1890.208,1202.358,1890.192z"/> <path fill="#A0B380" d="M1180.28,1870.64c-1.63,1.178-2.693,2.675-2.959,4.396c-0.27,1.751,0.323,3.504,1.572,5.097l-0.002,0.013 c-8.664-1.202-15.363-4.303-14.959-6.925C1164.336,1870.605,1171.647,1869.454,1180.28,1870.64z"/> <path fill="#A0B380" d="M1176.025,1913.338c-1.63,1.178-2.694,2.674-2.959,4.396c-0.269,1.751,0.323,3.504,1.572,5.097 l-0.001,0.013c-8.666-1.202-15.363-4.302-14.959-6.925C1160.081,1913.304,1167.392,1912.152,1176.025,1913.338z"/> <ellipse fill="#CAD8AD" cx="1170.902" cy="1896.238" rx="26.026" ry="24.704"/> <path fill="#A0B380" d="M1175.995,1889.126c-0.576,1.751-0.906,3.801-0.906,5.992c0,2.229,0.342,4.313,0.937,6.083v0.016 c-3.519,0-6.369-2.707-6.369-6.046C1169.656,1891.842,1172.491,1889.142,1175.995,1889.126z"/> <path fill="#A0B380" d="M1158.519,1874.504c1.313,6.239,2.063,13.465,2.063,21.168c0,8.125-0.835,15.72-2.284,22.186 c-8.004-4.214-13.422-12.316-13.422-21.619C1144.876,1886.85,1150.394,1878.684,1158.519,1874.504z"/> <ellipse fill="#FFFFFF" cx="1150.745" cy="1893.377" rx="2.582" ry="4.251"/> <ellipse fill="#62665A" cx="1150.075" cy="1891.828" rx="1.305" ry="2.146"/> <path fill="#A0B380" d="M1145.106,1898.891l-2.337-0.801c-0.04-0.521-0.022-0.92-0.003-1.497c0.095-2.892,1.685-5.403,2.646-5.375 c0.961,0.028,1.297,2.427,1.203,5.318c-0.096,2.892-0.076,5.459-1.037,5.431c-0.564-0.017-1.609-0.705-2.191-2.346 L1145.106,1898.891z"/> <path fill="#A0B380" d="M2329.195,1710.041c1.178,3.584,1.855,7.78,1.855,12.266c0,4.563-0.701,8.826-1.918,12.45v0.031 c7.2,0,13.036-5.54,13.036-12.373C2342.169,1715.601,2336.365,1710.073,2329.195,1710.041z"/> <path fill="#A0B380" d="M2374.385,1670.021c3.336,2.41,5.514,5.474,6.057,8.996c0.551,3.584-0.661,7.172-3.219,10.433l0.004,0.024 c17.735-2.46,31.444-8.806,30.617-14.172C2407.02,1669.952,2392.056,1667.595,2374.385,1670.021z"/> <path fill="#A0B380" d="M2383.094,1757.414c3.336,2.41,5.514,5.474,6.057,8.997c0.551,3.583-0.661,7.171-3.219,10.432l0.004,0.025 c17.736-2.461,31.444-8.806,30.617-14.173C2415.729,1757.345,2400.765,1754.987,2383.094,1757.414z"/> <ellipse fill="#CAD8AD" cx="2393.58" cy="1722.415" rx="53.27" ry="50.563"/> <path fill="#A0B380" d="M2383.156,1707.858c1.178,3.583,1.855,7.779,1.855,12.265c0,4.563-0.701,8.827-1.918,12.45v0.032 c7.2,0,13.036-5.541,13.036-12.375C2396.13,1713.417,2390.327,1707.89,2383.156,1707.858z"/> <path fill="#A0B380" d="M2418.926,1677.931c-2.688,12.771-4.224,27.56-4.224,43.326c0,16.629,1.709,32.174,4.677,45.407 c16.382-8.625,27.471-25.208,27.471-44.249C2446.85,1703.199,2435.557,1686.486,2418.926,1677.931z"/> <ellipse fill="#FFFFFF" cx="2434.836" cy="1716.559" rx="5.286" ry="8.701"/> <ellipse fill="#62665A" cx="2436.208" cy="1713.389" rx="2.67" ry="4.395"/> <path fill="#A0B380" d="M2446.378,1727.845l4.782-1.64c0.083-1.068,0.045-1.882,0.006-3.064 c-0.193-5.918-3.448-11.059-5.416-11.001c-1.968,0.059-2.656,4.967-2.462,10.886c0.193,5.917,0.154,11.173,2.122,11.115 c1.154-0.034,3.292-1.442,4.484-4.801L2446.378,1727.845z"/> <circle fill="#C2C3C9" cx="1748.875" cy="1257.79" r="3.875"/> <polygon fill="#F8F1DF" points="1635.928,1065.63 1431.887,1065.63 1379.362,996.744 1684.787,996.744 "/> <line fill="none" stroke="#594E41" stroke-miterlimit="10" x1="1405.674" y1="1011.999" x2="1663.028" y2="1011.999"/> <line fill="none" stroke="#594E41" stroke-width="0.9099" stroke-miterlimit="10" x1="1427.812" y1="1030.186" x2="1640.891" y2="1030.186"/> <line fill="none" stroke="#594E41" stroke-width="0.8399" stroke-miterlimit="10" x1="1443.583" y1="1050.999" x2="1625.119" y2="1050.999"/> <path fill="#76AADB" d="M913.271,186.027c-8.07-27.338-33.347-47.295-63.3-47.295c-11.56,0-22.42,2.979-31.87,8.201 c-8.616-42.343-46.06-74.207-90.946-74.207c-51.259,0-92.813,41.554-92.813,92.813c0,6.63,0.701,13.095,2.022,19.331 c-26.547,10.714-42.776,25.036-42.776,40.773c0,33.194,72.169,60.104,161.195,60.104c45.489,0,86.57-7.028,115.878-18.328 c3.403-1.123,6.682-2.513,9.815-4.149c1.73-0.803,3.408-1.622,5.028-2.458c5.867,3.32,12.641,5.225,19.863,5.225 c22.31,0,40.395-18.085,40.395-40.395C945.761,206.04,931.795,189.703,913.271,186.027z"/> <path fill="#91BFE5" d="M1549.27,447.053c-8.07-27.338-33.348-47.295-63.3-47.295c-11.56,0-22.42,2.979-31.87,8.201 c-8.616-42.343-46.06-74.207-90.946-74.207c-51.259,0-92.813,41.554-92.813,92.813c0,6.63,0.701,13.095,2.022,19.331 c-26.547,10.714-42.776,25.036-42.776,40.773c0,33.194,72.169,60.104,161.195,60.104c45.489,0,86.57-7.028,115.878-18.328 c3.402-1.123,6.682-2.513,9.814-4.149c1.73-0.803,3.408-1.622,5.027-2.458c5.867,3.32,12.641,5.225,19.863,5.225 c22.31,0,40.395-18.085,40.395-40.395C1581.76,467.065,1567.793,450.729,1549.27,447.053z"/> <path fill="#76AADB" d="M2121.984,186.027c-8.07-27.338-33.348-47.295-63.299-47.295c-11.561,0-22.42,2.979-31.87,8.201 c-8.616-42.343-46.06-74.207-90.946-74.207c-51.26,0-92.813,41.554-92.813,92.813c0,6.63,0.7,13.095,2.021,19.331 c-26.547,10.714-42.775,25.036-42.775,40.773c0,33.194,72.169,60.104,161.194,60.104c45.489,0,86.569-7.028,115.878-18.328 c3.402-1.123,6.682-2.513,9.814-4.149c1.73-0.803,3.408-1.622,5.027-2.458c5.867,3.32,12.641,5.225,19.863,5.225 c22.311,0,40.395-18.085,40.395-40.395C2154.475,206.04,2140.508,189.703,2121.984,186.027z"/> <path fill="#91BFE5" d="M2315.083,737.941c-8.07-27.338-33.348-47.295-63.299-47.295c-11.561,0-22.42,2.979-31.87,8.201 c-8.616-42.343-46.06-74.207-90.946-74.207c-51.26,0-92.813,41.554-92.813,92.813c0,6.63,0.7,13.095,2.021,19.331 c-26.547,10.714-42.775,25.036-42.775,40.773c0,33.194,72.169,60.104,161.194,60.104c45.489,0,86.569-7.028,115.878-18.328 c3.402-1.123,6.682-2.513,9.814-4.149c1.73-0.803,3.408-1.622,5.027-2.458c5.867,3.32,12.641,5.225,19.863,5.225 c22.311,0,40.395-18.085,40.395-40.395C2347.573,757.954,2333.606,741.617,2315.083,737.941z"/> <path fill="#76AADB" d="M1089.357,758.968c-8.07-27.338-33.348-47.295-63.299-47.295c-11.561,0-22.42,2.979-31.87,8.201 c-8.616-42.343-46.06-74.207-90.946-74.207c-51.26,0-92.813,41.554-92.813,92.813c0,6.63,0.7,13.095,2.021,19.331 c-26.547,10.714-42.775,25.036-42.775,40.773c0,33.194,72.169,60.104,161.194,60.104c45.489,0,86.569-7.028,115.878-18.328 c3.402-1.123,6.682-2.513,9.814-4.149c1.73-0.803,3.408-1.622,5.027-2.458c5.867,3.32,12.641,5.225,19.863,5.225 c22.311,0,40.395-18.085,40.395-40.395C1121.847,778.98,1107.88,762.644,1089.357,758.968z"/> </g> <g id="Camada_2"> <rect y="1041.857" opacity="0.5" fill="#59A3C3" width="2998.499" height="958.143"/> </g> </svg>