<?xml version='1.0' encoding='utf-8'?>
<svg xmlns="http://www.w3.org/2000/svg" version="1.1" width="1279px" height="960px" viewBox="-113 593 1279 960"> <g id="layer1"> <g style="fill:rgb(21,76,104); fill-opacity:1.0; stroke-linejoin: miter"> <path d="M-113.00101,592.2477C-113.20027,592.2477,-113.39137,592.3268,-113.53227,592.4678C-113.67317,592.60864,-113.75233,592.7997,-113.75233,592.999L-113.75133,1553.0001C-113.75133,1553.415,-113.41495,1553.7515,-113.00001,1553.7515L1166.001,1553.7524C1166.2002,1553.7524,1166.3914,1553.6732,1166.5322,1553.5323C1166.6731,1553.3915,1166.7524,1553.2003,1166.7524,1553.0011L1166.7515,593.0C1166.7515,592.5851,1166.415,592.24866,1166.0,592.24866L-113.00101,592.2477 Z"/> </g> <g style="fill:rgb(152,101,76); fill-opacity:1.0; stroke-linejoin: miter"> <path d="M507.5222,889.72925L507.4061,890.2898Q506.7061,893.9536,505.61295,896.266Q504.68436,898.33704,501.63052,902.0389L513.4778,907.9377L518.46545,900.0019Q526.6552,891.48596,528.74335,888.81506Q531.63367,885.3684,532.2277,883.0285Q532.39874,881.79,531.96826,881.5046Q531.64984,881.12494,530.0972,880.96173Q529.83295,880.889,529.8591,880.6225Q529.8974,880.3913,530.2369,879.9697Q532.0862,877.8767,532.6381,877.09644Q533.063,876.516,533.385,875.9128Q534.3366,873.84784,533.6618,872.875Q533.10425,871.516,530.752,870.87524Q529.0317,870.4828,526.66656,871.1405Q521.2026,872.85547,514.11206,879.6171Q511.32956,882.42163,509.9648,884.6984Q508.74423,886.6258,507.5222,889.72925"/> </g> <g style="fill:rgb(0,0,0); fill-opacity:1.0; stroke-linejoin: miter"> <path d="M515.78845,990.2367L506.9733,988.3605C498.80386,995.0598,494.97958,991.0054,494.67587,987.86414C493.23917,972.9988,499.33066,956.0382,502.52835,944.0664C504.71182,935.8915,516.184,903.37604,516.184,903.37604C512.8053,900.7292,506.3503,895.5243,506.3503,895.5243C501.32022,898.4686,477.1143,937.9094,466.29495,1005.41956C462.61453,1028.3851,474.3774,1031.176,477.545,1072.0635C478.63693,1086.1592,463.18265,1113.7568,453.53488,1138.3417C448.6357,1150.8253,447.60727,1167.9207,446.14273,1171.0432C451.5425,1172.2192,479.90427,1171.3733,507.1005,1174.4231C530.9526,1177.0983,553.61554,1169.0132,559.6772,1168.7396C542.54236,1129.686,552.7974,1067.8103,554.6955,1064.6809C565.91876,1072.1007,569.341,1087.0991,569.341,1087.0991C543.4455,1103.4899,538.68036,1105.7401,538.68036,1105.7401C533.2795,1089.3387,533.325,1125.1869,539.56995,1123.982C554.8678,1121.0297,595.0439,1104.0977,594.0772,1096.2015C589.7241,1060.6519,571.282,1032.956,567.925,1028.1931C565.1938,1024.318,546.7804,1012.3596,546.7804,1012.3596C546.08386,1012.0679,544.5664,1008.2894,542.2284,1001.02527C541.3017,999.5952,540.23883,998.2864,538.8092,997.46045C534.2307,994.8146,526.4875,992.5311,515.78845,990.2367 Z"/> </g> <g style="fill:rgb(255,235,59); fill-opacity:0.99607843; stroke-linejoin: miter"> <path d="M462.70853,1022.24915L462.70822,1022.24963L462.70853,1022.24915L462.7084,1022.24976L462.70822,1022.24963L462.70853,1022.24915L462.7084,1022.24976Q462.70853,1022.24915,462.70853,1022.24915"/> </g> <g style="fill:rgb(104,113,119); fill-opacity:1.0; stroke-linejoin: miter"> <path d="M601.40234,896.2243L601.40204,896.2249L601.40234,896.2243L601.40234,896.2243L601.40204,896.2249L601.40234,896.2243L601.40234,896.2243Q601.40234,896.2243,601.40234,896.2243"/> </g> <g style="fill:rgb(104,113,119); fill-opacity:1.0; stroke-linejoin: miter"> <path d="M601.40234,896.2243L601.40204,896.2249L601.40234,896.2243L601.40234,896.2243L601.40204,896.2249L601.40234,896.2243L601.40234,896.2243Q601.40234,896.2243,601.40234,896.2243"/> </g> <g style="fill:rgb(104,113,119); fill-opacity:1.0; stroke-linejoin: miter"> <path d="M601.40234,896.2243L601.40204,896.2249L601.4022,896.2247L601.40234,896.2243L601.40204,896.2249L601.40234,896.2243L601.4022,896.2247Q601.40234,896.2243,601.40234,896.2243"/> </g> <g style="fill:rgb(104,113,119); fill-opacity:1.0; stroke-linejoin: miter"> <path d="M610.77716,958.13525L610.77686,958.1361L610.77716,958.13525L610.77686,958.1361L610.77716,958.13525L610.77686,958.1361L610.77716,958.13525Q610.77716,958.13525,610.77716,958.13525"/> </g> <g style="fill:rgb(104,113,119); fill-opacity:1.0; stroke-linejoin: miter"> <path d="M610.77716,958.13525L610.77686,958.1361L610.77716,958.13525L610.77686,958.1361L610.77716,958.13525L610.77686,958.1361L610.77716,958.13525Q610.77716,958.13525,610.77716,958.13525"/> </g> <g style="fill:rgb(0,0,0); fill-opacity:1.0; stroke-linejoin: miter"> <path d="M464.4501,1409.624L489.2463,1409.6156C499.69882,1318.2362,507.60928,1281.9884,506.4805,1239.4387C505.78183,1213.1018,506.75247,1197.3417,501.94302,1192.0051C505.09274,1202.9733,509.16116,1210.8339,513.6271,1216.0487C517.89874,1221.0367,526.9239,1228.4656,541.2391,1237.8914L520.04785,1314.2762L559.83203,1318.1588C525.83655,1348.9059,565.6772,1285.4894,573.23816,1273.8807C580.79913,1262.272,597.11334,1254.2012,598.6234,1243.6787C599.1384,1240.0898,598.2389,1236.0471,596.7734,1231.6382C596.7574,1229.7281,592.9167,1222.7267,586.1706,1210.127C584.5383,1207.0784,572.25256,1189.6477,549.0012,1157.8142C542.81824,1149.3491,538.6325,1141.6034,535.2351,1135.3304C531.3483,1128.1542,527.50104,1117.7622,524.2477,1103.8455C496.5933,1110.7631,478.77805,1118.0128,469.91666,1124.4276C461.70126,1130.3749,454.44766,1141.6122,449.87344,1159.5806C445.11325,1178.2793,444.8834,1205.9924,446.77567,1242.5896C447.90408,1264.4124,453.28915,1320.1106,464.4501,1409.624 Z"/> </g> <g style="fill:rgb(0,0,0); fill-opacity:1.0; stroke-linejoin: miter"> <path d="M463.48746,1404.0531L463.6873,1405.0571Q464.85953,1410.561,464.52664,1414.2999Q464.1954,1416.991,463.97263,1417.5634L461.98996,1424.2524Q461.7076,1425.3497,461.5665,1426.4073Q461.25113,1428.5325,461.91464,1430.3975Q462.6193,1432.2655,464.3591,1433.7042Q465.225,1434.419,466.32687,1434.9927L467.4835,1435.5261Q470.7897,1437.0717,477.33713,1436.7892Q482.63998,1436.4207,487.084,1434.5592Q491.4827,1432.7411,492.58353,1429.4874Q493.1962,1427.3126,492.69858,1424.802Q492.54947,1423.564,490.68784,1417.156Q490.08975,1414.65,489.88614,1412.2925Q489.55923,1409.8887,489.86276,1403.1624L463.48746,1404.0531"/> </g> <g style="fill:rgb(0,0,0); fill-opacity:1.0; stroke-linejoin: miter"> <path d="M594.3719,1158.7144L594.3719,1158.7147L594.3719,1158.715L594.3719,1158.7144"/> </g> <g style="fill:rgb(0,0,0); fill-opacity:1.0; stroke-linejoin: miter"> <path d="M510.2722,963.88477L510.13254,963.47815Q509.1636,960.82446,509.14108,959.0834Q509.07492,957.5287,510.21518,954.60693Q509.28586,950.8367,510.2955,947.5077Q510.75314,945.63,513.02094,940.28Q513.5838,937.32764,514.8252,934.6553Q516.0912,932.5241,516.57544,932.1928Q518.3772,930.49896,519.817,929.91254Q523.61163,928.03314,530.4593,927.6442Q537.3151,927.46234,542.2597,929.168Q547.15283,930.8049,550.6492,933.7588Q551.8007,934.73157,552.7545,935.8154L553.6533,936.92224Q555.3347,939.19885,556.1584,941.7666Q559.25446,949.90137,553.7948,967.624L510.2722,963.88477"/> </g> <g style="fill:rgb(152,101,76); fill-opacity:1.0; stroke-linejoin: miter"> <path d="M512.1009,993.55237L512.2558,992.92065C512.8138,990.81885,513.4405,987.21985,514.13654,982.12415C513.4003,978.39954,513.38336,974.86975,514.0859,971.53467C511.4924,971.63196,509.90335,970.2914,509.33615,967.50916C508.63907,964.08765,509.08188,961.1929,510.59177,958.79285C511.23282,957.7738,512.8005,958.34436,515.3488,960.53906C516.86475,951.09985,521.9209,945.2084,530.64685,943.48145C534.5763,942.7035,538.8994,943.39294,543.5175,944.9059C547.4551,946.1958,550.40076,948.3532,552.2671,951.4518C553.79553,953.98816,554.604,956.9807,554.7734,960.38196L554.7048,962.5502L553.6825,967.6636L553.1912,974.072C553.10754,974.9968,552.9453,975.79114,552.7678,976.4729C552.63464,976.98413,552.2906,977.71204,551.67065,978.64014L548.93756,982.2677C545.654,987.16174,543.80457,989.75366,543.4913,990.1354C541.60016,992.43945,539.9339,993.7855,538.3871,994.0879L538.2747,994.67456C538.06195,994.8651,538.1824,998.7411,538.6353,1006.30273L532.17615,1032.6647C519.0274,1005.23975,517.26276,1002.85205,517.26276,1002.85205C515.3621,1000.2803,513.6035,997.20886,512.1009,993.55237 Z"/> </g> <g style="fill:rgb(255,0,0); fill-opacity:1.0; stroke-linejoin: miter"> <path d="M548.6805,947.3905L548.6804,947.39136L548.6805,947.3905L548.6805,947.3905"/> </g> <g style="fill:rgb(0,0,0); fill-opacity:1.0; stroke-linejoin: miter"> <path d="M543.82336,921.86066L543.82336,921.8614L543.82336,921.86066L543.82336,921.8614"/> </g> <g style="fill:rgb(0,0,0); fill-opacity:0.28235295; stroke-linejoin: miter"> <path d="M518.5654,986.9042L525.9647,1005.5729L538.02075,1033.6619Q538.72864,1004.3806,538.1342,994.2024Q533.3675,996.04504,529.75323,994.4662Q526.5335,993.33887,518.5654,986.9042"/> </g> <g style="fill:rgb(0,0,0); fill-opacity:1.0; stroke-linejoin: miter"> <path d="M530.257,983.76746L530.257,983.7677L530.2569,983.7689L530.257,983.76746"/> </g> <g style="fill:rgb(0,0,0); fill-opacity:1.0; stroke-linejoin: miter"> <path d="M547.144,931.3455L546.6625,932.73206Q544.72595,936.7988,540.0042,938.3231Q535.2544,939.8379,529.8352,937.92957Q524.7184,935.8939,522.3903,931.7913Q520.0709,927.6668,521.8219,923.33417Q523.75836,919.26715,528.48016,917.7431Q533.2299,916.22833,538.6491,918.13666Q543.76605,920.1724,546.09406,924.2751Q546.8377,925.59894,547.17377,927.0212L547.396,928.4515Q547.5102,929.8985,547.144,931.3455"/> </g> <g style="fill:rgb(112,97,78); fill-opacity:1.0; stroke-linejoin: miter"> <path d="M390.64438,1088.9943L391.931,1105.5798L525.0134,1105.2385L541.76276,1105.1991L541.76263,1105.2019L539.3951,1088.6139L522.6452,1088.6558L390.64438,1088.9943 Z"/> </g> <g style="fill:rgb(112,97,78); fill-opacity:1.0; stroke-linejoin: miter"> <path d="M390.64438,1088.9943L374.01038,1089.0397L374.01044,1089.0433L375.29688,1105.6216L391.931,1105.5798L390.64438,1088.9943L390.64438,1088.9972 Z"/> </g> <g style="fill:rgb(112,97,78); fill-opacity:1.0; stroke-linejoin: miter"> <path d="M374.00977,1089.0369L374.00977,1089.0397L374.01044,1089.0433L374.01038,1089.0397L374.00977,1089.0369 Z"/> </g> <g style="fill:rgb(112,97,78); fill-opacity:1.0; stroke-linejoin: miter"> <path d="M374.00977,1089.0369L374.00977,1089.0397L374.00977,1089.0369 Z"/> </g> <g style="fill:rgb(112,97,78); fill-opacity:1.0; stroke-linejoin: miter"> <path d="M538.7185,1201.2245L538.71844,1201.2262L538.7189,1201.2281L538.7188,1201.2311L538.7189,1201.2281L538.7188,1201.2311L538.7185,1201.2245 Z"/> </g> <g style="fill:rgb(112,97,78); fill-opacity:1.0; stroke-linejoin: miter"> <path d="M555.4678,1201.1818L538.7189,1201.2281L538.7188,1201.2311L541.08606,1217.8063L557.8355,1217.7672L555.4678,1201.1818 Z"/> </g> <g style="fill:rgb(112,97,78); fill-opacity:1.0; stroke-linejoin: miter"> <path d="M399.3798,1201.5817L382.74524,1201.6276L382.7453,1201.6304L384.03195,1218.2084L400.66623,1218.1694L399.3798,1201.5817 Z"/> </g> <g style="fill:rgb(112,97,78); fill-opacity:1.0; stroke-linejoin: miter"> <path d="M399.3798,1201.5817L400.6663,1218.1658L541.08606,1217.8063L538.7189,1201.2281L538.7188,1201.2311L538.71844,1201.2281L538.71844,1201.2262L538.7185,1201.2245L399.3798,1201.5817 Z"/> </g> <g style="fill:rgb(112,97,78); fill-opacity:1.0; stroke-linejoin: miter"> <path d="M382.74524,1201.6243L382.74524,1201.6276L382.7453,1201.6304L382.74524,1201.6276L382.74524,1201.6243 Z"/> </g> <g style="fill:rgb(112,97,78); fill-opacity:1.0; stroke-linejoin: miter"> <path d="M571.54047,1313.7493L571.54083,1313.7521L571.5409,1313.7557L571.54083,1313.7521L571.5409,1313.7557L571.54047,1313.7493 Z"/> </g> <g style="fill:rgb(112,97,78); fill-opacity:1.0; stroke-linejoin: miter"> <path d="M571.54083,1313.7521L572.725,1322.044L573.9086,1330.332L571.54083,1313.7521 Z"/> </g> <g style="fill:rgb(112,97,78); fill-opacity:1.0; stroke-linejoin: miter"> <path d="M408.11447,1314.1682L409.4008,1330.7532L557.15894,1330.3749L573.9087,1330.3348L571.54083,1313.7521L571.5409,1313.7557L571.5404,1313.7521L571.54047,1313.7493L554.79126,1313.7954L554.7913,1313.7925L408.11447,1314.1682 Z"/> </g> <g style="fill:rgb(112,97,78); fill-opacity:1.0; stroke-linejoin: miter"> <path d="M408.11447,1314.1682L391.48038,1314.2141L391.48044,1314.2174L392.76712,1330.7958L409.40085,1330.756L408.11447,1314.1682 Z"/> </g> <g style="fill:rgb(112,97,78); fill-opacity:1.0; stroke-linejoin: miter"> <path d="M391.48044,1314.2113L391.48038,1314.2141L391.48044,1314.2174L391.48038,1314.2141L391.48044,1314.2113 Z"/> </g> <g style="fill:rgb(112,97,78); fill-opacity:1.0; stroke-linejoin: miter"> <path d="M587.6134,1426.3174L587.6138,1426.3206L587.61383,1426.3235L587.6138,1426.3206L587.61383,1426.3235L587.6134,1426.3174 Z"/> </g> <g style="fill:rgb(112,97,78); fill-opacity:1.0; stroke-linejoin: miter"> <path d="M587.6498,1426.5703L588.7979,1434.6116L589.8494,1441.9763L587.6498,1426.5703 Z"/> </g> <g style="fill:rgb(112,97,78); fill-opacity:1.0; stroke-linejoin: miter"> <path d="M416.84964,1426.7545L418.13638,1443.3394L573.2311,1442.9421L589.98157,1442.9026L587.6138,1426.3206L587.61383,1426.3235L587.6134,1426.3206L587.6134,1426.3174L570.86414,1426.3599L416.84964,1426.7545 Z"/> </g> <g style="fill:rgb(112,97,78); fill-opacity:1.0; stroke-linejoin: miter"> <path d="M400.21494,1426.797L401.5021,1443.3821L418.13632,1443.3418L416.84964,1426.7545L400.21494,1426.797 Z"/> </g> <g style="fill:rgb(112,97,78); fill-opacity:1.0; stroke-linejoin: miter"> <path d="M603.6862,1538.8853L603.6866,1538.8882L603.68665,1538.891L603.6866,1538.8882L603.68665,1538.891L603.6862,1538.8853 Z"/> </g> <g style="fill:rgb(112,97,78); fill-opacity:1.0; stroke-linejoin: miter"> <path d="M603.6866,1538.8882L604.8707,1547.1797L605.8441,1553.9977L603.6866,1538.8882 Z"/> </g> <g style="fill:rgb(112,97,78); fill-opacity:1.0; stroke-linejoin: miter"> <path d="M603.6862,1538.8853L586.9368,1538.9281L425.58463,1539.3414L426.87137,1555.9259L589.3042,1555.5094L606.05383,1555.4691L603.6866,1538.8882L603.68665,1538.891L603.68616,1538.8882L603.6862,1538.8853 Z"/> </g> <g style="fill:rgb(112,97,78); fill-opacity:1.0; stroke-linejoin: miter"> <path d="M408.9501,1539.3837L410.23685,1555.9688L426.8713,1555.9288L425.58463,1539.3414L408.9501,1539.3837 Z"/> </g> <g style="fill:rgb(173,158,127); fill-opacity:1.0; stroke-linejoin: miter"> <path d="M376.14178,1001.10126C371.79556,1001.10126,368.14453,1004.4852,367.8722,1008.8827C367.84793,1009.27203,367.85132,1009.6563,367.8808,1010.0398L410.06476,1553.7518L410.23685,1555.9688L426.8713,1555.9288L426.70245,1553.7518L384.4188,1008.7561C384.11176,1004.69244,380.84546,1001.3762,376.66248,1001.11743C376.4879,1001.1066,376.3143,1001.10126,376.14178,1001.10126 Z"/> </g> <g style="fill:rgb(173,158,127); fill-opacity:1.0; stroke-linejoin: miter"> <path d="M520.67664,1007.8917C516.0743,1007.9032,512.3706,1011.62585,512.3823,1016.2069C512.3835,1016.5966,512.41095,1016.98004,512.46606,1017.3616L589.304,1555.5094L606.05383,1555.4691L605.80865,1553.752L603.6866,1538.8882L605.809,1553.752L528.8872,1015.01636C528.3199,1010.9872,524.85803,1007.8917,520.67664,1007.8917 Z"/> </g> <g style="fill:rgb(152,101,76); fill-opacity:1.0; stroke-linejoin: miter"> <path d="M544.00745,1104.268L544.00745,1104.268L526.39404,1110.2787Q527.6229,1121.2412,528.85175,1132.2039Q537.76086,1127.3885,546.6699,1122.5731L544.00745,1104.268"/> </g> <g style="fill:rgb(255,255,255); fill-opacity:0.7058824; stroke-linejoin: miter"> <path d="M774.95197,962.6712C774.27246,960.18756,773.9417,957.6254,773.96796,955.02765C774.1255,939.66693,786.7508,927.2984,802.1108,927.455C808.5013,927.52057,814.72076,929.80365,819.6246,933.88336C823.9855,937.51166,827.1495,942.4146,828.662,947.83685C838.95166,946.98114,848.1781,953.5987,850.9848,963.1475C852.5446,962.8095,854.1366,962.6468,855.7402,962.66327C867.5618,962.78424,877.08246,972.4312,876.9618,984.253C876.84076,996.07513,867.1246,1005.5256,855.3026,1005.40485L780.4521,1004.6402C768.6298,1004.518,759.10974,994.8713,759.2306,983.0485C759.32935,973.377,765.8157,965.1779,774.95197,962.6712 Z"/> </g> <g style="fill:rgb(255,201,77); fill-opacity:1.0; stroke-linejoin: miter"> <path d="M557.391,789.5572C557.1625,789.56177,557.02295,789.70984,556.9604,789.7884L556.96045,789.78864C556.8087,789.9796,556.6193,790.41895,556.28546,791.20337L556.28485,791.20483C556.23224,791.32965,556.17084,791.4778,556.1076,791.63135C556.0394,791.79584,555.9655,791.97455,555.90045,792.12885C555.8599,792.2251,555.82025,792.3179,555.78674,792.3945L555.7842,792.40015C555.6423,792.7378,555.4605,793.1721,555.37476,793.39215L555.374,793.393C555.3042,793.54193,555.17285,793.84863,555.0283,794.18506C554.9308,794.41223,554.8384,794.62823,554.73694,794.8615C554.4884,795.4173,554.27936,795.9262,554.2381,796.052L554.238,796.05255C554.2345,796.0624,554.2265,796.0886,554.22015,796.12225L554.2162,796.1231C554.1735,796.23486,554.04315,796.5468,553.879,796.9241L553.8773,796.9281C553.8152,797.07477,553.5893,797.6066,553.3306,798.21497L553.3306,798.2152L551.56396,802.37537L551.56396,802.37537C551.12634,803.407,550.7594,804.2727,550.3885,805.14935C550.0968,805.8389,549.91376,806.2715,549.70593,806.76135L549.70593,806.7622C549.51337,807.215,549.372,807.54535,549.3243,807.65314L549.3246,807.6536C549.15533,808.0348,548.91486,808.605,548.78394,808.9198L548.784,808.92035L548.753,808.9942L548.71625,809.08185C548.58575,809.39545,548.4182,809.79596,548.2981,810.07L548.29034,810.0886C548.2214,810.26843,548.1191,810.50665,548.0152,810.74896C547.93524,810.93524,547.8515,811.12964,547.79224,811.278L547.79224,811.27844C547.6866,811.528,547.5148,811.94055,547.39844,812.2196L547.39844,812.22015L547.30597,812.4425L547.30597,812.443C546.9627,813.25977,546.694,813.8398,546.55835,814.08246L546.55475,814.08276C545.3281,814.1987,538.927,814.85364,536.14325,815.14667L536.14276,815.1467C535.27203,815.2399,533.94147,815.37555,533.1331,815.4551L533.1313,815.4558C531.70465,815.6006,530.5147,815.72546,529.581,815.8228C528.98004,815.8862,528.2099,815.9661,527.7572,816.0125L527.7572,816.013C527.48737,816.0403,527.4397,816.045,527.18115,816.0707L527.17896,816.0707C524.2661,816.3762,522.4721,816.56305,521.5171,816.6556L521.51447,816.65564C521.0385,816.70514,520.6725,816.7609,520.45,816.87604L520.45,816.87665C520.31805,816.9438,520.1495,817.07794,520.11096,817.3147L520.10803,817.33844C520.08826,817.52795,520.19916,817.6772,520.20074,817.6798C520.3775,817.9516,521.0941,818.628,521.8615,819.282C521.86847,819.28766,521.87006,819.2887,521.87006,819.2887L521.8701,819.2894C521.87103,819.2893,521.87286,819.29156,521.87714,819.29504C523.77325,820.9099,524.0213,821.12775,524.7949,821.8072L524.7949,821.80743L524.91504,821.91235L524.9169,821.9142C525.0016,821.9877,525.1501,822.1175,525.2757,822.2274C525.4579,822.38654,525.65955,822.5629,525.8745,822.74963C526.15076,822.9893,526.4452,823.24316,526.69916,823.4562L526.6993,823.4566C527.2867,823.95966,527.80695,824.4125,527.8701,824.4731L527.8998,824.499C527.9656,824.5521,528.56744,825.0701,529.2316,825.6468L529.23157,825.6479L529.3955,825.7892L529.3955,825.7889L529.5661,825.9377C530.13605,826.4326,530.74994,826.9655,531.01276,827.188L531.0123,827.18854C531.215,827.3667,531.6799,827.769,532.29315,828.2996L532.29315,828.3001C532.7164,828.6662,533.2608,829.13727,533.73724,829.551L533.7388,829.5528C534.9263,830.57214,536.4191,831.8724,537.03455,832.4163L537.03827,832.41876C537.1355,832.5032,537.28406,832.63196,537.39795,832.7307L537.3981,832.7316C537.54626,832.85925,537.6774,832.9733,537.835,833.10944L537.835,833.11C538.3186,833.5275,538.8313,833.96893,539.17737,834.2551L539.17737,834.25555C540.1621,835.09534,540.05096,835.0897,539.9191,835.53754L539.9187,835.5388C539.8556,835.75586,539.6913,836.434,539.565,837.0669L539.565,837.0671C539.485,837.45856,539.358,838.06006,539.23517,838.6451L539.2352,838.6457C539.16956,838.955,539.095,839.3112,539.0412,839.5682C538.69037,841.2014,538.5531,841.8434,538.3573,842.7598C538.2365,843.3238,538.20905,843.45294,538.1155,843.88824L538.11426,843.89343C538.02386,844.3435,537.9002,844.8949,537.84344,845.13025C537.80505,845.2872,537.7528,845.53485,537.7048,845.76227L537.70483,845.76276C537.6774,845.892,537.64734,846.0335,537.6236,846.14185L537.6227,846.1461L537.62146,846.1519L537.62103,846.1535C537.43805,847.047,537.0414,848.9248,536.9286,849.3899L536.92725,849.39484L536.92737,849.3959C536.8679,849.64215,536.76385,850.12177,536.6955,850.4746C536.6276,850.8116,536.5261,851.29254,536.47107,851.5198C536.4127,851.7606,536.32904,852.13824,536.2932,852.36945L536.2931,852.37C536.2612,852.5584,536.185,852.9178,536.12866,853.1484C536.07086,853.3884,535.9865,853.76733,535.9505,853.998L535.95056,853.9985C535.9188,854.1848,535.8418,854.5484,535.7867,854.7774C535.7275,855.0222,535.62225,855.5077,535.5535,855.8614L535.5535,855.8625C535.48505,856.2008,535.3848,856.6777,535.32935,856.9067C535.27014,857.1506,535.16486,857.6377,535.0962,857.99115L535.0961,857.99207C535.0178,858.3667,534.97015,858.5816,534.8727,859.021L534.8728,859.0221C534.8089,859.309,534.7524,859.564,534.64026,860.0733L534.64,860.0738C534.56903,860.3538,534.5334,860.67206,534.55725,860.87115L534.55725,860.87115C534.56195,860.90985,534.5743,860.99664,534.6193,861.0821L534.6703,861.1586C534.81006,861.3263,535.00256,861.3237,535.03864,861.32306L535.04016,861.3233C535.1007,861.3218,535.15234,861.31024,535.18555,861.30176L535.1862,861.30273C535.4619,861.2316,536.1009,860.8912,536.8228,860.46173L536.8262,860.45953C537.65424,859.9559,538.5096,859.44476,538.7301,859.3166L538.7551,859.301C538.86035,859.2297,539.01776,859.1356,539.1873,859.0353C539.30914,858.96295,539.439,858.8858,539.54083,858.82086L539.54083,858.82153C539.6812,858.7347,540.02484,858.52686,540.5057,858.23615L540.5057,858.23663C540.6971,858.12024,541.2487,857.78595,541.47394,857.6492L541.47485,857.64886C542.99994,856.721,543.36224,856.5029,544.2215,855.98737L544.22156,855.98816C545.0775,855.4758,551.8025,851.4164,552.17706,851.1886L552.1947,851.17773C552.3295,851.0866,552.5505,850.95575,552.76263,850.82983L552.7624,850.8304C552.8546,850.7751,552.92523,850.7332,553.00256,850.68634L553.0026,850.68713C553.1093,850.6222,553.28265,850.5186,553.4312,850.43024C553.5736,850.34564,553.7612,850.23395,553.8656,850.1706L553.86646,850.17035L554.1991,849.96814L554.1992,849.96857L554.5311,849.7667C555.0065,849.4778,555.4107,849.2327,556.2078,848.75256L556.2093,848.7518C556.4354,848.6142,556.6208,848.5,556.7964,848.39215L556.7964,848.3924C556.91583,848.3187,557.06946,848.2243,557.16113,848.168C557.7327,847.82025,557.8634,847.7733,557.9111,847.7698L557.9149,847.77C557.92926,847.7726,557.95953,847.7839,558.1171,847.8728L558.1173,847.8731C558.1739,847.9044,558.25287,847.94867,558.3352,847.99194L558.3351,847.9922C558.7129,848.1966,559.1334,848.4388,559.2879,848.54486C559.4848,848.67957,560.50323,849.27075,561.5264,849.85565L561.5264,849.8559C562.35767,850.3339,563.45844,850.9709,564.00555,851.2876L564.0055,851.28815L564.3006,851.4589L564.30054,851.4594C565.9908,852.46014,571.6259,855.7228,572.0795,855.9577L572.07947,855.95856C572.3086,856.0854,572.6429,856.291,572.82825,856.40906L572.8265,856.40985C572.97845,856.5208,573.1506,856.61975,573.2756,856.6666L573.2757,856.6669C573.2901,856.6721,573.3233,856.68445,573.3675,856.6943L573.36346,856.69495C573.46594,856.7474,573.7428,856.9087,574.0591,857.1175L574.0592,857.11816C574.4083,857.3476,574.7712,857.5634,574.91394,857.6257L574.9136,857.626C574.92126,857.6292,574.97186,857.6525,575.03894,857.6647L575.0352,857.66516C575.0775,857.68494,575.1717,857.7369,575.2727,857.8131L575.3011,857.83264C575.493,857.9552,575.85675,858.17944,576.10754,858.3178L576.10767,858.3185C576.11255,858.3209,576.11676,858.32306,576.121,858.32513L576.1203,858.3257C576.3713,858.46454,577.3337,859.0148,578.24445,859.5437L578.244,859.54443C579.8413,860.4835,580.4212,860.82513,580.67566,860.9022L580.67596,860.90326C580.7284,860.9181,580.7967,860.9339,580.8758,860.9324C581.0646,860.9286,581.1804,860.8313,581.2276,860.7879C581.2362,860.7801,581.229,860.78625,581.2375,860.77893L581.23914,860.77716C581.23914,860.77716,581.2421,860.7743,581.2432,860.773L581.24316,860.7738L581.28076,860.7338C581.39813,860.5941,581.3969,860.4232,581.39777,860.3992L581.39777,860.39886C581.4098,860.0076,581.0843,858.5395,580.2298,854.9254C579.9619,853.7647,579.78503,853.0097,579.63403,852.3633C579.5347,851.9389,579.4568,851.6055,579.37805,851.2657L579.37805,851.2663C579.32605,851.0404,579.27386,850.81165,579.2218,850.58093L579.2211,850.5777C579.0873,850.0033,578.83844,848.9319,578.6767,848.2216L578.6758,848.21735L578.6753,848.21625C578.51135,847.49567,578.3208,846.68823,578.2524,846.4114L578.2524,846.4116C578.18475,846.1391,578.0648,845.6407,577.99774,845.3133C577.9268,844.95593,577.80206,844.42487,577.71924,844.10834L577.71844,844.1042L577.71844,844.10394L577.71857,844.1048C577.6398,843.8027,577.52014,843.2813,577.4526,842.9538C577.38153,842.5958,577.257,842.0659,577.17426,841.74866C577.0954,841.4463,576.9745,840.92084,576.907,840.59094L576.9048,840.58124L576.88416,840.4915L576.88416,840.49115L576.86224,840.397L576.8623,840.39764C576.73425,839.8361,576.5778,839.15564,576.3454,838.215L576.34485,838.2133C576.2777,837.94183,576.1578,837.4415,576.0908,837.1167L576.09076,837.117C576.0466,836.8936,575.9792,836.6148,575.91895,836.3633L575.9185,836.3641C575.8801,836.20294,575.845,836.05725,575.8194,835.94086L575.819,835.94135L575.8135,835.91644C575.61255,835.10504,575.5633,834.78894,575.5676,834.6649L575.5638,834.6655C575.72424,834.5304,576.1651,834.1325,576.57996,833.75806L576.58466,833.7535C576.88,833.47864,577.69635,832.74347,578.6605,831.8751C579.1867,831.4016,579.74615,830.897,580.3051,830.3923L580.3051,830.3929L580.99896,829.7709L581.62274,829.21326L581.6228,829.214C582.58777,828.3498,583.3594,827.6579,583.5483,827.4777L583.5473,827.4782C583.64386,827.39496,583.80194,827.25366,583.9792,827.0949L583.97925,827.09546C584.2155,826.8829,584.4612,826.6623,584.71405,826.4427L584.7172,826.44025L584.7206,826.437C585.1398,826.0732,585.51526,825.73486,585.5864,825.66486C585.5864,825.66486,585.5916,825.65985,585.5962,825.6555L585.5962,825.65564C585.61865,825.63306,585.7363,825.52637,585.92377,825.3566L585.9239,825.3569C586.0677,825.2264,586.35284,824.96765,586.56134,824.7773L586.56287,824.77606L586.56976,824.76953C586.8243,824.53705,587.00397,824.37524,587.1966,824.20056L587.1966,824.20105C587.32513,824.084,587.3773,824.0368,587.458,823.9632L587.45807,823.963C587.4977,823.9269,587.52734,823.8993,587.5469,823.88074L587.5469,823.8813C587.5511,823.8768,587.55426,823.8735,587.55835,823.8693L587.55817,823.86975C587.6029,823.8251,587.96204,823.4997,588.3919,823.12714L588.3949,823.1241C588.65704,822.89246,588.7143,822.84174,588.9174,822.6627C589.0422,822.5529,589.20197,822.412,589.3478,822.2834C589.8121,821.8728,590.5648,821.2044,592.4185,819.5509L592.4294,819.54095L592.43115,819.53906L592.4316,819.54C593.712,818.3912,594.85046,817.3071,595.0544,817.02783L595.0548,817.0287C595.0567,817.0277,595.1637,816.89233,595.1603,816.7208C595.1594,816.6744,595.1566,816.62823,595.1515,816.5843L595.15576,816.5847C595.15704,816.58734,595.1581,816.5894,595.15875,816.5902L595.1593,816.5907C595.17,816.5798,595.09686,816.1372,594.7209,816.1193L594.717,816.12C594.67523,816.11646,594.3681,816.086,593.9537,816.04425L593.9537,816.0448L593.57715,816.00653L593.5712,816.0058C591.92773,815.8631,590.2504,815.7222,588.81824,815.612L588.81665,815.61273L588.8135,815.6117L588.8127,815.61224C588.127,815.5626,587.0763,815.47266,586.4538,815.41034L586.4523,815.41034C586.42566,815.4076,586.4091,815.40594,586.39984,815.40485L586.4001,815.40564C586.40015,815.40485,586.38794,815.40405,586.33746,815.3992L586.337,815.3997C586.1947,815.3851,586.3244,815.3975,586.18225,815.3839L586.1827,815.3848C585.20935,815.2901,584.2026,815.195,581.86163,815.0126L581.8616,815.0131C581.81573,815.00867,581.0623,814.9435,581.00684,814.93823L581.0068,814.93933C580.8151,814.9217,579.9995,814.8509,579.6029,814.81683C578.97473,814.7626,578.1395,814.6911,577.0128,814.596L577.0126,814.59656C576.4405,814.5467,575.348,814.4525,574.6379,814.39325L574.6378,814.3937C574.6379,814.39325,574.6002,814.39,574.5978,814.38983L574.59796,814.3903C573.86017,814.3279,572.8285,814.24176,572.2073,814.1796L572.1991,814.17847C571.9238,814.15594,571.5945,814.1311,571.2113,814.10205L571.2113,814.1023C570.8119,814.07184,570.3311,814.03516,569.978,814.0061L569.9775,814.0067C569.92786,814.00183,569.82056,813.99286,569.7767,813.98895L569.76666,813.9886C569.19525,813.9531,568.7649,813.88214,568.5868,813.83484L568.5832,813.83545C568.4534,813.604,568.1325,812.9231,567.7771,812.11273L567.77716,812.1132C567.15656,810.68854,566.3791,808.92584,565.97925,808.02057L565.97925,808.02057C565.852,807.7313,565.83203,807.6863,565.7654,807.5345L565.7595,807.5219C565.7363,807.4736,565.7074,807.4111,565.66296,807.31537C565.603,807.1862,565.5094,806.9847,565.42926,806.81757L565.42926,806.81805C565.40564,806.7684,565.3915,806.7393,565.3683,806.6913C565.2519,806.45184,565.1662,806.2447,565.13544,806.16003L565.132,806.161C565.1246,806.1088,565.11096,806.0702,565.1096,806.0649C565.0716,805.94824,564.942,805.6559,564.8242,805.3924L564.8198,805.383C564.2975,804.28345,564.1359,803.9315,564.0924,803.81805L564.0889,803.81854C564.08246,803.7679,564.0704,803.72925,564.06885,803.72534L564.06885,803.72516C564.03217,803.6013,563.91144,803.3123,563.77435,803.0296L563.768,803.0174L563.76746,803.0164L563.7677,803.0166C563.6133,802.69745,563.45544,802.3504,563.4107,802.2348C563.3528,802.0844,563.20245,801.74866,563.08777,801.4947L563.0843,801.4873C563.0085,801.32684,562.91016,801.1054,562.81104,800.88226L562.8109,800.8823C562.7656,800.7801,562.70624,800.64703,562.67017,800.5671L562.66675,800.55975C562.5511,800.315,562.4126,800.00415,562.36664,799.88446L562.3667,799.8843C562.30634,799.7291,562.1298,799.3436,561.974,799.02264L561.974,799.0224C561.8576,798.78314,561.7727,798.57654,561.7416,798.4916L561.7382,798.49243C561.73157,798.4454,561.7201,798.41046,561.71936,798.40717L561.71924,798.4072C561.6821,798.2815,561.56213,797.9945,561.4242,797.71075L561.42426,797.7115C561.2677,797.38824,561.1064,797.03394,561.061,796.9162L561.0607,796.91595C561.00104,796.76117,560.8239,796.37463,560.6681,796.0541L560.66797,796.0546C560.5524,795.8153,560.4667,795.60785,560.4357,795.5227L560.4322,795.5233C560.4246,795.4718,560.41125,795.433,560.40936,795.4275C560.37177,795.311,560.2418,795.01843,560.1245,794.75543L560.1196,794.7443C559.6562,793.7783,559.51416,793.46063,559.2329,792.7839L559.2329,792.7842C559.0987,792.4388,558.8803,791.9645,558.746,791.6721L558.74603,791.67194C558.74445,791.6683,558.7012,791.5743,558.70026,791.5726L558.6937,791.5583C558.5577,791.2879,558.342,790.7954,558.2136,790.4695L558.20605,790.4512C558.09436,790.2008,557.94604,789.91296,557.82275,789.76526L557.8227,789.7658C557.81696,789.758,557.73346,789.6458,557.58795,789.5917L557.5874,789.59216C557.5379,789.5731,557.4706,789.5557,557.391,789.5572 Z"/> </g> <g style="fill:rgb(255,255,255); fill-opacity:0.7058824; stroke-linejoin: miter"> <path d="M263.91614,843.0486C264.47205,841.0166,264.74268,838.92065,264.72083,836.7954C264.5924,824.2294,254.26448,814.11084,241.6988,814.23926C236.47102,814.2927,231.38344,816.1609,227.37221,819.49805C223.80464,822.46643,221.21614,826.47766,219.97884,830.9127C211.56148,830.21326,204.01369,835.6266,201.7173,843.438C200.44154,843.16113,199.13966,843.02795,197.8279,843.0419C188.15675,843.1406,180.36852,851.0321,180.46718,860.7031C180.56618,870.374,188.51454,878.1046,198.18544,878.006L259.41663,877.3803C269.0879,877.2812,276.87555,869.3895,276.77716,859.7185C276.6963,851.8059,271.39062,845.0989,263.91614,843.0486 Z"/> </g> </g> </svg>