<?xml version='1.0' encoding='utf-8'?>
<svg xmlns="http://www.w3.org/2000/svg" version="1.1" width="1279px" height="960px" viewBox="-113 593 1279 960"> <g id="layer1"> <g style="fill:rgb(6,137,156); fill-opacity:1.0; stroke-linejoin: miter"> <path d="M-113.001,592.2933C-113.18818,592.2933,-113.36768,592.3677,-113.50004,592.5C-113.63239,592.6323,-113.70675,592.8118,-113.70675,592.999L-113.70575,1553.0C-113.70575,1553.3898,-113.38978,1553.7058,-113.0,1553.7058L1166.001,1553.7068C1166.1881,1553.7068,1166.3677,1553.6323,1166.5,1553.5C1166.6323,1553.3677,1166.7068,1553.1881,1166.7068,1553.001L1166.7058,593.0C1166.7058,592.6102,1166.3898,592.29425,1166.0,592.29425L-113.001,592.2933 Z"/> </g> <g style="fill:rgb(0,0,0); fill-opacity:1.0; stroke-linejoin: miter"> <path d="M527.8012,1076.4617L341.99203,1165.8401L156.18008,1255.2198Q159.71475,1262.5681,163.2499,1269.9174Q349.06284,1180.5399,534.8726,1091.1624Q531.3369,1083.8121,527.8012,1076.4617"/> </g> <g style="fill:rgb(255,0,0); fill-opacity:1.0; stroke-linejoin: miter"> <path d="M256.58676,1208.3423L237.19704,1199.7942L217.80704,1191.2451Q182.53505,1206.0448,147.26236,1220.8429Q157.80234,1235.1024,168.34319,1249.3623L256.58676,1208.3423"/> </g> <g style="fill:rgb(255,0,0); fill-opacity:1.0; stroke-linejoin: miter"> <path d="M133.51569,1376.7485L133.51657,1376.7495L133.51862,1376.7538L133.51569,1376.7485"/> </g> <g style="fill:rgb(255,0,0); fill-opacity:1.0; stroke-linejoin: miter"> <path d="M265.60373,1219.5459L254.56735,1260.464L187.24384,1296.7971L178.27702,1262.4847L265.60373,1219.5459"/> </g> <g style="fill:rgb(255,255,255); fill-opacity:1.0; stroke-linejoin: miter"> <path d="M1061.0253,917.88586L1053.4203,916.78357L1045.8154,915.681Q1048.1882,917.7269,1050.5605,919.77234Q1049.4535,922.67834,1048.3468,925.5846L1061.0253,917.88586"/> </g> <g style="fill:rgb(255,255,255); fill-opacity:1.0; stroke-linejoin: miter"> <path d="M1054.7068,913.53723L1054.5306,912.64124L1054.3546,911.7457Q1052.4896,915.89026,1050.6248,920.03455Q1053.8966,922.9818,1057.1688,925.9293L1054.7068,913.53723"/> </g> <g style="fill:rgb(255,255,255); fill-opacity:1.0; stroke-linejoin: miter"> <path d="M545.89716,1011.27325L538.2923,1010.1707L530.6877,1009.0682Q533.06,1011.1141,535.43256,1013.1602Q534.3256,1016.066,533.21893,1018.972L545.89716,1011.27325"/> </g> <g style="fill:rgb(255,255,255); fill-opacity:1.0; stroke-linejoin: miter"> <path d="M539.5789,1006.92413L539.4029,1006.0286L539.22687,1005.1326Q537.36176,1009.2774,535.49677,1013.42194Q538.769,1016.3692,542.04095,1019.3167L539.5789,1006.92413"/> </g> <g style="fill:rgb(255,255,255); fill-opacity:1.0; stroke-linejoin: miter"> <path d="M769.4802,1394.8954L761.87494,1393.7931L754.27057,1392.6893Q756.643,1394.736,759.0157,1396.7819Q757.90875,1399.6879,756.8016,1402.5939L769.4802,1394.8954"/> </g> <g style="fill:rgb(255,255,255); fill-opacity:1.0; stroke-linejoin: miter"> <path d="M763.1618,1390.546L762.9858,1389.6505L762.80975,1388.7548Q760.9449,1392.8993,759.07965,1397.0441Q762.35175,1399.9913,765.62384,1402.9388L763.1618,1390.546"/> </g> <g style="fill:rgb(255,255,255); fill-opacity:1.0; stroke-linejoin: miter"> <path d="M148.10915,847.94763L140.50429,846.8451L132.89967,845.7428Q135.27223,847.7887,137.64479,849.83435Q136.53786,852.74084,135.43105,855.6466L148.10915,847.94763"/> </g> <g style="fill:rgb(255,255,255); fill-opacity:1.0; stroke-linejoin: miter"> <path d="M141.79091,843.59875L141.61488,842.70325L141.43886,841.80725Q139.57387,845.9518,137.70876,850.09656Q140.98097,853.0438,144.25294,855.99133L141.79091,843.59875"/> </g> <g style="fill:rgb(255,255,255); fill-opacity:1.0; stroke-linejoin: miter"> <path d="M113.255264,900.88806L124.45949,902.5126L135.66371,904.1371Q132.16798,901.1227,128.6725,898.1085Q130.30336,893.8268,131.93434,889.5453L113.255264,900.88806"/> </g> <g style="fill:rgb(255,255,255); fill-opacity:1.0; stroke-linejoin: miter"> <path d="M122.56398,907.2953L122.82338,908.61536L123.08278,909.93494Q125.83058,903.82874,128.57814,897.72253Q123.75746,893.38,118.93666,889.03796L122.56398,907.2953"/> </g> <g style="fill:rgb(255,255,255); fill-opacity:1.0; stroke-linejoin: miter"> <path d="M747.8859,1422.8038L754.9462,1425.8375L762.0064,1428.8712Q760.24445,1426.2804,758.48224,1423.6903Q760.3035,1421.17,762.12506,1418.6493L747.8859,1422.8038"/> </g> <g style="fill:rgb(255,255,255); fill-opacity:1.0; stroke-linejoin: miter"> <path d="M752.86334,1428.6398L752.8016,1429.5511L752.7397,1430.4618Q755.6137,1426.941,758.4881,1423.4205Q756.0903,1419.7269,753.6923,1416.0331L752.86334,1428.6398"/> </g> <g style="fill:rgb(255,255,255); fill-opacity:1.0; stroke-linejoin: miter"> <path d="M438.96063,1417.777L446.0208,1420.8104L453.08124,1423.8434Q451.31903,1421.2526,449.55682,1418.663Q451.37823,1416.1422,453.19952,1413.622L438.96063,1417.777"/> </g> <g style="fill:rgb(255,255,255); fill-opacity:1.0; stroke-linejoin: miter"> <path d="M443.93805,1423.6129L443.87604,1424.5236L443.8145,1425.4349Q446.68842,1421.9135,449.5628,1418.3932Q447.16486,1414.6996,444.76703,1411.006L443.93805,1423.6129"/> </g> <g style="fill:rgb(255,255,255); fill-opacity:1.0; stroke-linejoin: miter"> <path d="M975.8159,1095.9362L982.8766,1098.9691L989.9367,1102.0026Q988.17474,1099.412,986.4124,1096.8217Q988.23364,1094.3011,990.0552,1091.7806L975.8159,1095.9362"/> </g> <g style="fill:rgb(255,255,255); fill-opacity:1.0; stroke-linejoin: miter"> <path d="M980.7938,1101.7714L980.73193,1102.6827L980.6701,1103.5936Q983.54407,1100.0726,986.41833,1096.5521Q984.0205,1092.8583,981.6228,1089.1649L980.7938,1101.7714"/> </g> <g style="fill:rgb(0,0,0); fill-opacity:0.99607843; stroke-linejoin: miter"> <path d="M339.18997,1053.2383L339.19046,1053.2385L339.18997,1053.2383L339.19046,1053.2385 Z"/> </g> <g style="fill:rgb(255,255,255); fill-opacity:1.0; stroke-linejoin: miter"> <path d="M343.2731,1041.0859L343.27347,1041.0862L343.27347,1041.0889L343.2731,1041.0859"/> </g> <g style="fill:rgb(105,232,251); fill-opacity:1.0; stroke-linejoin: miter"> <path d="M349.084,888.2616C349.80716,885.5646,350.152,882.78235,350.11026,879.96423C349.85757,863.30115,336.09683,849.9498,319.43338,850.2025C312.5015,850.3058,305.7665,852.8153,300.46854,857.26794C295.757,861.2269,292.35013,866.56287,290.73795,872.45325C279.57205,871.5792,269.59818,878.80725,266.60416,889.18176C264.9103,888.82263,263.18216,888.6544,261.44315,888.68225C248.61966,888.8761,238.34317,899.3905,238.53653,912.21497C238.73111,925.0404,249.32047,935.2401,262.1442,935.04675L343.33987,933.8202C356.16446,933.6261,366.43997,923.1095,366.24612,910.2855C366.08743,899.79285,359.00797,890.931,349.084,888.2616 Z"/> </g> <g style="fill:rgb(105,232,251); fill-opacity:1.0; stroke-linejoin: miter"> <path d="M51.704163,1422.5411C51.367737,1421.287,51.20746,1419.993,51.226868,1418.6827C51.3443,1410.9344,57.743347,1404.7257,65.49237,1404.8431C68.71564,1404.8915,71.84772,1406.059,74.31134,1408.1288C76.50214,1409.9703,78.086365,1412.4515,78.83624,1415.1903C84.028625,1414.784,88.666565,1418.1454,90.05878,1422.9696C90.84662,1422.8024,91.650085,1422.7245,92.45892,1422.7369C98.42218,1422.8273,103.20099,1427.7169,103.1109,1433.6803C103.020325,1439.6447,98.09589,1444.3873,92.13251,1444.2977L54.37506,1443.7264C48.411438,1443.6361,43.633118,1438.7457,43.723328,1432.7823C43.79706,1427.9032,47.089417,1423.7823,51.704163,1422.5411 Z"/> </g> <g style="fill:rgb(105,232,251); fill-opacity:1.0; stroke-linejoin: miter"> <path d="M1041.9332,1372.7892C1042.4103,1371.0094,1042.6378,1369.174,1042.6102,1367.3141C1042.4436,1356.3195,1033.3639,1347.5106,1022.3687,1347.6774C1017.7949,1347.7457,1013.35077,1349.4015,1009.8553,1352.339C1006.7465,1354.9515,1004.4986,1358.4723,1003.4347,1362.359C996.06714,1361.7828,989.486,1366.5519,987.5106,1373.3976C986.3931,1373.1603,985.2527,1373.0494,984.1053,1373.0677C975.644,1373.1957,968.8632,1380.1337,968.991,1388.5956C969.1195,1397.0577,976.1069,1403.7877,984.5684,1403.66L1038.1436,1402.8492C1046.6053,1402.7211,1053.3855,1395.7821,1053.2574,1387.3204C1053.1525,1380.3973,1048.4813,1374.5504,1041.9332,1372.7892 Z"/> </g> <g style="fill:rgb(105,232,251); fill-opacity:1.0; stroke-linejoin: miter"> <path d="M17.88965,744.139C17.553347,742.8851,17.392824,741.5914,17.4126,740.2806C17.52991,732.5323,23.92908,726.3238,31.67786,726.4412C34.90137,726.4891,38.033207,727.6563,40.49683,729.7266C42.687748,731.56793,44.271976,734.04913,45.021732,736.78815C50.214363,736.38165,54.852303,739.743,56.244514,744.56744C57.032356,744.4002,57.8357,744.3223,58.64454,744.33453C64.607796,744.42487,69.38648,749.31476,69.29652,755.2779C69.20594,761.24225,64.2815,765.98517,58.318123,765.8951L20.560549,765.3245C14.597048,765.2342,9.818604,760.34357,9.908814,754.3802C9.982545,749.50104,13.274904,745.38043,17.88965,744.139 Z"/> </g> <g style="fill:rgb(105,232,251); fill-opacity:1.0; stroke-linejoin: miter"> <path d="M643.6538,1263.835C643.3174,1262.5808,643.1572,1261.2871,643.17664,1259.9766C643.29407,1252.228,649.693,1246.0198,657.442,1246.1372C660.6654,1246.1853,663.79724,1247.3523,666.261,1249.4226C668.4518,1251.2637,670.0359,1253.7451,670.7859,1256.4839C675.9784,1256.0776,680.61633,1259.439,682.0084,1264.2634C682.7964,1264.0962,683.59985,1264.0183,684.40857,1264.0308C690.3718,1264.1211,695.15063,1269.0105,695.06067,1274.9741C694.9701,1280.9385,690.04553,1285.6807,684.0823,1285.5911L646.3246,1285.02C640.3612,1284.9299,635.58276,1280.0396,635.673,1274.0762C635.7468,1269.1968,639.03906,1265.0769,643.6538,1263.835 Z"/> </g> <g style="fill:rgb(186,12,12); fill-opacity:1.0; stroke-linejoin: miter"> <path d="M816.83246,935.7322L817.6874,958.7927Q823.76624,1028.4844,853.2601,1070.2671Q882.9581,1112.0168,923.203,1104.1262Q961.61145,1093.0969,984.6394,1039.5806Q992.0179,1022.282,996.7947,1001.88257L1000.8093,980.91064Q1004.11774,959.26465,1004.15497,935.7322Q1003.1506,863.51575,976.72217,815.5631Q950.29376,767.6094,910.4937,765.78735Q870.69366,767.6094,844.2652,815.5631Q817.8368,863.51575,816.83246,935.7322"/> </g> <g style="fill:rgb(255,0,0); fill-opacity:1.0; stroke-linejoin: miter"> <path d="M815.68054,936.62573L816.42566,959.7427Q821.72437,1029.6023,847.43384,1071.4875Q873.321,1113.3396,908.4019,1105.4292Q941.88184,1094.3728,961.95496,1040.7268Q968.38654,1023.3862,972.55035,1002.93677L976.0499,981.9133Q978.9337,960.2151,978.9663,936.62573Q978.09076,864.23376,955.0536,816.1642Q932.01636,768.094,897.3234,766.26733Q862.6303,768.094,839.59314,816.1642Q816.55585,864.23376,815.68054,936.62573"/> </g> <g style="fill:rgb(255,255,255); fill-opacity:1.0; stroke-linejoin: miter"> <path d="M829.30634,937.2261L830.06683,956.33374Q832.16675,981.9885,837.43677,1003.04663Q844.718,1028.3638,847.12524,1032.0479Q850.9494,1040.8535,855.5659,1048.51Q864.86237,1063.8081,875.5334,1070.9678Q889.17346,1078.1362,892.31366,1077.1274Q898.1649,1077.6553,904.36,1076.1475Q907.65216,1076.1904,920.8596,1065.9956Q925.9527,1061.3108,930.5035,1054.8921Q939.60474,1042.0544,946.5367,1022.2788Q961.9807,974.44824,958.84357,923.04004Q957.4384,897.4413,952.58215,875.8456Q950.1541,865.0477,946.8631,855.25134Q945.7041,849.6156,935.1542,828.33386Q917.65546,796.9319,893.0873,795.8042Q880.8151,796.58276,870.4421,804.8972Q865.25555,809.05566,860.54395,815.09753Q849.18054,831.84973,847.4775,837.4606Q839.4788,855.19617,835.0008,876.8734Q832.7617,887.7118,831.4028,899.5359Q830.17316,904.83276,829.30634,937.2261"/> </g> <g style="fill:rgb(255,0,0); fill-opacity:1.0; stroke-linejoin: miter"> <path d="M841.59485,936.8562L842.07056,952.3628Q844.226,977.3845,847.7038,990.313Q851.18585,1003.16406,854.3059,1011.7075Q858.1647,1020.68945,862.07477,1027.3289Q871.292,1041.8083,878.1072,1045.6948Q889.39417,1053.0784,899.23004,1050.552Q920.7423,1044.6953,933.4194,1013.55005Q936.05396,1007.62476,938.7452,998.0867Q944.32306,976.27466,944.5471,971.7317Q947.3002,953.937,947.08124,935.5408Q946.36456,887.86926,931.6319,856.37854Q916.3517,823.27576,894.3827,822.6Q873.77454,823.0409,858.0972,853.5963Q841.8592,888.5299,841.59485,936.8562"/> </g> <g style="fill:rgb(255,255,255); fill-opacity:1.0; stroke-linejoin: miter"> <path d="M856.3384,938.27515L857.03406,949.43506Q858.6137,964.3345,861.95624,976.64624Q867.1749,994.5332,872.4923,1001.9214Q879.67725,1012.6033,883.98505,1015.17017Q893.06476,1020.6914,898.87024,1019.2366Q908.06506,1016.59375,912.7338,1011.126Q915.46265,1008.30005,917.84863,1004.584Q919.25574,1003.2822,924.2354,991.4353Q927.77075,983.063,931.1027,963.1328Q932.85175,950.0354,932.30115,934.9253Q931.5894,919.6692,928.9557,906.77856Q927.63885,900.33276,925.84174,894.4794Q925.24335,891.18225,919.36896,878.2479Q914.14154,867.8041,908.10803,862.0045Q905.09143,859.1044,901.87317,857.3656Q900.39,855.7704,891.765,854.7616Q888.46814,854.9369,885.3806,856.1771Q883.706,856.1317,876.5886,862.297Q871.04114,867.97546,866.3308,877.9176Q861.4853,889.26746,858.9729,902.4509Q856.3429,919.3318,856.51715,923.2571Q856.136,930.5366,856.3384,938.27515"/> </g> <g style="fill:rgb(255,0,0); fill-opacity:1.0; stroke-linejoin: miter"> <path d="M868.80597,936.22437L868.7523,943.7605Q869.2136,963.427,875.982,978.5232Q878.97345,983.73364,880.23615,985.3474Q881.854,987.5842,883.16473,988.7168Q888.863,993.1875,893.61816,992.6426Q905.26074,990.80396,912.59045,973.8264Q916.2409,964.6387,918.289,954.47266Q920.11743,943.4343,920.068,935.2532Q920.33453,912.97363,913.3047,897.2367Q906.24115,881.83386,896.0321,881.73376Q894.41064,881.70105,891.4724,882.5316Q889.1053,883.6576,885.9699,886.0902Q882.8245,888.5536,878.3437,896.1127Q875.24207,901.73047,872.251,912.2622Q870.6307,919.1885,869.7802,924.5359Q869.04877,930.6941,868.80597,936.22437"/> </g> <g style="fill:rgb(125,139,150); fill-opacity:1.0; stroke-linejoin: miter"> <path d="M864.30756,721.39355L864.30756,721.395L864.30756,721.39355L864.30756,721.39624L864.30756,721.395L864.30756,721.39355L864.30756,721.39624Q864.30756,721.39355,864.30756,721.39355"/> </g> <g style="fill:rgb(128,128,128); fill-opacity:1.0; stroke-linejoin: miter"> <path d="M457.51868,1108.7708L457.51868,1108.7712C454.68494,1110.9757,453.76733,1112.6293,453.28973,1114.5975L453.00958,1114.5293C453.50543,1112.4875,454.46637,1110.7802,457.3418,1108.5433 Z"/> </g> <g style="fill:rgb(0,0,0); fill-opacity:1.0; stroke-linejoin: miter"> <path d="M430.56616,1123.6119L430.56616,1123.6122L443.24036,1120.1074L443.24036,1120.1085C445.31848,1120.3197,446.62305,1121.9879,446.4441,1123.7485L446.4441,1123.7488C446.33173,1124.8541,445.6336,1125.9952,444.1748,1126.8334L444.1748,1126.8341L432.10834,1130.1237L432.10834,1130.1245L430.56616,1123.6119L430.56616,1123.6122 M430.56616,1123.6119L430.56616,1123.6122L432.10834,1130.1237L432.10834,1130.1245L444.1748,1126.8334L444.1748,1126.8341C445.6336,1125.9952,446.33173,1124.8541,446.4441,1123.7485L446.4441,1123.7488C446.62305,1121.9879,445.31848,1120.3197,443.24036,1120.1074L443.24036,1120.1085L430.56616,1123.6119 Z"/> </g> <g style="fill:rgb(0,0,0); fill-opacity:1.0; stroke-linejoin: miter"> <path d="M444.93756,1120.5297L444.93756,1120.5302L450.58948,1118.5582L450.58948,1118.559C452.17242,1119.3479,452.75574,1121.1938,452.19965,1122.3083L452.19965,1122.3091C452.06958,1122.569,451.87683,1122.7903,451.62036,1122.9482L451.62036,1122.9487L445.9411,1125.7949L445.9411,1125.7952C447.01538,1124.2858,447.3537,1123.0026,444.93732,1120.5297L444.93732,1120.5302L444.93756,1120.5297L444.93756,1120.5302 M444.93756,1120.5297L444.93756,1120.5302L444.93732,1120.5297L444.93732,1120.5302C447.3537,1123.0026,447.01538,1124.2858,445.9411,1125.7949L445.9411,1125.7952L451.62036,1122.9482L451.62036,1122.9487C451.87683,1122.7903,452.06958,1122.569,452.19965,1122.3083L452.19965,1122.3091C452.75574,1121.1938,452.17242,1119.3479,450.58948,1118.5582L450.58948,1118.559L444.93756,1120.5297 Z"/> </g> <g style="fill:rgb(0,0,0); fill-opacity:0.99607843; stroke-linejoin: miter"> <path d="M450.0086,1118.515L450.0086,1118.5155L450.0086,1118.515L450.0086,1118.5155"/> </g> <g style="fill:rgb(0,0,0); fill-opacity:0.99607843; stroke-linejoin: miter"> <path d="M416.01178,1243.534L417.48535,1243.568Q424.1325,1243.7167,427.10815,1244.0687Q430.9533,1244.5054,432.62268,1245.2959Q433.42725,1245.6611,433.9679,1246.1256Q434.36707,1246.3098,435.11627,1247.6992Q435.7517,1249.1322,435.4178,1252.2689L399.16455,1252.2001L401.92133,1242.8545L416.01178,1243.534"/> </g> <g style="fill:rgb(90,43,22); fill-opacity:1.0; stroke-linejoin: miter"> <path d="M381.05588,1019.06384L381.50485,1017.4105C380.65695,1013.8678,378.1437,1011.5,374.10904,1009.9197C369.26474,1008.02246,364.4243,1007.08594,359.47873,1007.82996C356.61923,1008.2605,354.43552,1009.6533,352.63266,1011.4425C351.06424,1012.9999,348.8146,1016.5133,346.10995,1022.22327C342.49387,1022.75256,339.72073,1023.40076,337.8516,1024.2994C336.23477,1025.0769,335.47928,1026.1887,335.12393,1027.4127C334.56094,1029.3529,335.5872,1034.2423,338.5883,1042.2076L344.52213,1043.5149C344.44626,1050.6818,345.85098,1055.927,345.85098,1055.927C346.811,1059.5112,349.42496,1061.8201,349.42496,1061.8201L362.73282,1049.1699L381.05588,1019.06384 Z"/> </g> <g style="fill:rgb(255,178,152); fill-opacity:1.0; stroke-linejoin: miter"> <path d="M358.71317,1054.374L358.84744,1054.6323Q359.6733,1056.3384,360.76767,1057.2146Q361.7031,1058.015,364.60092,1059.015L366.80063,1057.2183Q369.27798,1054.3195,370.0544,1053.0087Q371.48508,1050.8568,372.53397,1046.6173L375.75827,1047.0037Q377.2805,1048.081,378.57407,1047.9471Q381.04745,1047.6597,382.13876,1046.294Q382.86295,1045.3994,381.78305,1042.9966Q382.6561,1041.8943,382.89102,1041.3046Q383.12778,1040.6072,382.60086,1040.0546L383.06113,1038.0985Q383.75473,1037.8225,383.7681,1037.4539Q383.8135,1037.0112,383.09042,1035.8074Q383.75735,1035.2662,384.25684,1035.0468L386.13324,1034.4247Q386.4903,1034.3036,386.80212,1034.1239Q387.41528,1033.7133,387.3629,1033.2675Q387.3593,1032.6729,386.52582,1031.5936Q386.1466,1031.0236,383.74313,1028.726Q383.32803,1028.2479,383.08432,1027.6713Q382.85403,1027.0879,382.82614,1026.363Q382.96225,1022.9934,382.6984,1021.6227Q382.50992,1020.19446,381.29977,1016.5886Q379.4716,1016.48755,378.35806,1016.8827Q377.69974,1017.07605,376.0861,1017.8817L371.41562,1019.6925L373.3505,1023.11597L371.7805,1028.8622L366.66122,1031.3938Q363.37296,1027.5692,361.0956,1028.1963Q359.241,1028.5215,359.95193,1032.4044Q358.44278,1031.4618,358.17252,1032.0443Q358.00198,1032.157,358.02908,1033.2908Q358.0236,1033.8956,358.51932,1036.7903L358.7366,1042.7397L361.66605,1045.8501L358.71317,1054.374"/> </g> <g style="fill:rgb(255,255,255); fill-opacity:1.0; stroke-linejoin: miter"> <path d="M383.06088,1038.0686L383.06088,1038.0688L380.29092,1039.1302Q381.43393,1039.6638,382.5765,1040.1963L383.06088,1038.0686"/> </g> <g style="fill:rgb(255,0,0); fill-opacity:1.0; stroke-linejoin: miter"> <path d="M383.70602,1036.964L380.0563,1039.0355L382.98257,1040.8671Q383.11526,1040.6488,383.07394,1040.5055Q382.99326,1040.2991,382.8193,1040.1836Q382.49142,1039.9022,380.71585,1039.1185Q381.2839,1038.8595,381.68222,1038.6918L383.006,1038.1588Q383.3561,1038.0043,383.49265,1037.8997Q383.71884,1037.7507,383.8149,1037.4487L383.70602,1036.964"/> </g> <g style="fill:rgb(255,0,0); fill-opacity:1.0; stroke-linejoin: miter"> <path d="M374.62656,1015.1532L374.62656,1015.15344L374.62656,1015.1532L374.62656,1015.15344"/> </g> <g style="fill:rgb(90,43,22); fill-opacity:1.0; stroke-linejoin: miter"> <path d="M382.13693,1026.3385L381.7985,1026.2032Q380.7684,1025.7853,379.8732,1025.474Q378.91135,1025.1561,378.55362,1025.1294Q378.09555,1025.0808,377.84348,1025.1804Q377.57986,1025.2515,377.24728,1025.6406L382.13693,1026.3385"/> </g> <g style="fill:rgb(255,255,255); fill-opacity:1.0; stroke-linejoin: miter"> <path d="M380.99313,1027.5527L379.75174,1027.7944L378.51053,1028.0366Q379.79288,1028.3479,381.07462,1028.6594L380.99313,1027.5527"/> </g> <g style="fill:rgb(255,255,255); fill-opacity:1.0; stroke-linejoin: miter"> <path d="M376.95554,1031.5814L376.95578,1031.5818L376.95578,1031.5818L376.95554,1031.5814"/> </g> <g style="fill:rgb(0,0,0); fill-opacity:1.0; stroke-linejoin: miter"> <path d="M380.98538,1027.5936L380.98886,1027.6178Q381.02023,1027.7926,381.08365,1028.7054Q380.8013,1028.7162,380.66605,1028.6809Q380.61136,1028.6676,380.56223,1028.6444L380.5142,1028.6189Q380.4678,1028.5897,380.42825,1028.5476Q380.38907,1028.5054,380.35672,1028.4495L380.32608,1028.3909Q380.29697,1028.3292,380.27274,1028.2579Q380.2114,1028.0822,380.14023,1027.6909L380.98538,1027.5936"/> </g> <g style="fill:rgb(0,0,0); fill-opacity:1.0; stroke-linejoin: miter"> <path d="M344.1487,1022.5282L347.02493,1028.605Q347.98428,1027.8558,348.46207,1027.605Q348.9407,1027.3325,349.89462,1027.0342L346.57663,1021.0083Q346.1379,1021.87756,345.71518,1022.1134Q345.34933,1022.3789,344.1487,1022.5282"/> </g> <g style="fill:rgb(0,0,0); fill-opacity:1.0; stroke-linejoin: miter"> <path d="M348.145,1041.024L348.14517,1041.0247L348.14517,1041.024L348.145,1041.024"/> </g> <g style="fill:rgb(0,0,0); fill-opacity:1.0; stroke-linejoin: miter"> <path d="M330.5458,1115.7163L331.63528,1114.4856Q340.1315,1105.4374,343.2748,1097.0585Q344.8264,1093.2932,345.8422,1085.7284Q346.4584,1081.8883,346.43863,1066.087Q346.69034,1062.7655,346.85678,1062.3286Q347.10983,1060.4891,348.50607,1057.9719L352.51608,1053.0464Q353.0226,1052.4071,354.27878,1049.4792L370.73746,1052.3248Q368.3441,1057.1687,370.3477,1059.5369Q370.43375,1059.8208,372.11826,1061.3438Q379.58926,1067.0074,380.20706,1067.7207L383.86984,1071.2921Q387.56134,1075.0303,396.71973,1087.0999Q400.89856,1088.9039,406.18506,1092.1094Q412.96924,1096.2913,427.71967,1106.4888L439.4663,1113.0646L435.87085,1120.8827L421.20068,1113.5271Q401.0406,1104.2479,395.59467,1102.2875Q394.74988,1102.1255,383.10287,1092.5732Q381.9518,1094.394,378.1016,1098.8873Q377.26108,1104.685,372.6075,1111.5974Q368.53494,1117.4279,359.19125,1128.1304L330.5458,1115.7163"/> </g> <g style="fill:rgb(60,70,79); fill-opacity:0.99607843; stroke-linejoin: miter"> <path d="M343.4623,1088.8179L343.46243,1088.8184L343.4622,1088.8188L343.46243,1088.8184L343.4623,1088.8179L343.46243,1088.8184L343.4622,1088.8188Q343.46243,1088.8184,343.4623,1088.8179"/> </g> <g style="fill:rgb(60,70,79); fill-opacity:0.99607843; stroke-linejoin: miter"> <path d="M343.4623,1088.8179L343.46243,1088.8184L343.4622,1088.8188L343.46243,1088.8184L343.4623,1088.8179L343.46243,1088.8184L343.4622,1088.8188Q343.46243,1088.8184,343.4623,1088.8179"/> </g> <g style="fill:rgb(90,43,22); fill-opacity:1.0; stroke-linejoin: miter"> <path d="M337.55624,1031.1482L336.69016,1036.0367Q338.05777,1041.6976,339.0707,1044.2628Q340.11905,1046.747,340.40567,1047.0674Q340.89944,1047.8905,341.4747,1048.5276Q342.6476,1049.7631,344.05643,1050.3835Q344.47678,1050.6519,348.8478,1052.1151Q349.2086,1052.1925,350.50003,1053.1177Q352.0731,1054.2029,354.1379,1058.4365L369.96976,1072.5381Q364.77365,1065.4337,364.30783,1062.8293Q364.05966,1061.9386,364.02322,1061.0999L364.04385,1060.2758Q364.1226,1059.4663,364.34482,1058.6885L365.58548,1054.777Q365.9471,1052.7052,365.78867,1052.2113Q365.60617,1050.3912,364.35452,1048.2219Q363.09952,1046.0511,361.15707,1043.6561Q359.7675,1041.8812,355.87106,1037.5261L337.55624,1031.1482"/> </g> <g style="fill:rgb(0,0,0); fill-opacity:1.0; stroke-linejoin: miter"> <path d="M328.7972,1117.2894L329.47318,1116.9337C332.39243,1115.144,336.15738,1114.7186,340.7706,1115.649C347.3116,1116.9681,352.58975,1119.0543,356.6154,1121.8984C357.9645,1122.8512,359.61636,1124.2229,361.559,1126.0309L356.93015,1135.919C387.31543,1139.7954,402.82526,1142.085,403.45978,1142.7866C411.04816,1144.4778,413.4339,1146.016,415.5877,1149.6849C417.3944,1152.7628,417.5622,1162.2212,415.6093,1171.599C414.58643,1176.5114,412.39313,1245.2451,412.39313,1245.2451C396.3073,1249.6323,398.98358,1248.5889,398.98358,1248.5889C402.1543,1243.7899,390.17206,1166.7227,393.0683,1163.5378L358.60764,1164.3121L328.7972,1117.2894 Z"/> </g> <g style="fill:rgb(255,178,169); fill-opacity:0.99607843; stroke-linejoin: miter"> <path d="M463.8352,1127.6486L463.83496,1127.6492L463.83496,1127.6499L463.8352,1127.6486"/> </g> <g style="fill:rgb(255,178,152); fill-opacity:1.0; stroke-linejoin: miter"> <path d="M435.69128,1112.4004L440.6797,1114.1539L444.25507,1112.9637L449.28772,1110.6122L454.94366,1105.7357Q455.55646,1105.2125,456.07434,1104.8562Q457.40375,1103.9601,458.35736,1104.363Q459.61682,1104.9149,458.8833,1106.1926Q458.01617,1107.5123,454.6231,1110.0537Q460.45148,1111.2755,461.52667,1111.9703Q463.05066,1112.6844,462.91583,1114.418L459.8778,1117.0083Q459.88763,1118.9259,459.36273,1119.5071Q458.89868,1119.9292,457.77185,1119.8312Q457.33826,1121.3563,456.64374,1121.7184Q456.0506,1121.9642,454.87134,1121.6709Q454.15723,1123.2786,453.28888,1123.4756Q451.023,1124.1327,450.28613,1121.2896Q448.94183,1122.4706,447.4602,1123.2942Q446.46423,1123.8218,445.30554,1123.9248Q443.03253,1124.1254,439.28748,1121.751Q437.79163,1120.8341,434.9588,1118.8195L435.69128,1112.4004"/> </g> <g style="fill:rgb(0,0,0); fill-opacity:1.0; stroke-linejoin: miter"> <path d="M329.42404,1115.67L328.7737,1116.6838Q325.10452,1122.1947,324.14066,1126.7081Q323.04837,1132.019,324.42905,1138.5093Q325.4946,1144.4893,329.03085,1150.3661Q331.77,1154.5048,338.0884,1159.0468Q345.14175,1164.3096,354.79385,1164.6019Q362.19608,1165.375,389.70142,1161.3254L332.6472,1115.9471L329.42404,1115.67"/> </g> <g style="fill:rgb(0,0,0); fill-opacity:1.0; stroke-linejoin: miter"> <path d="M331.81143,1117.2897L332.48752,1116.934C335.4067,1115.144,339.17184,1114.7186,343.7847,1115.6489C350.32584,1116.9683,355.6041,1119.0546,359.62973,1121.8984C360.97867,1122.8512,360.13626,1122.7181,362.0787,1124.526L359.9445,1135.919C390.32965,1139.7957,405.83948,1142.085,406.47406,1142.7871C414.06213,1144.4778,416.44788,1146.0159,418.60187,1149.6849C420.4085,1152.7628,420.57617,1162.2212,418.62354,1171.599C417.6007,1176.511,415.40735,1245.245,415.40735,1245.245C399.32166,1249.6323,401.99792,1248.5889,401.99792,1248.5889C405.16852,1243.7899,393.18628,1166.7225,396.08264,1163.5378L361.62216,1164.3121L331.81143,1117.2897 Z"/> </g> <g style="fill:rgb(0,0,0); fill-opacity:1.0; stroke-linejoin: miter"> <path d="M393.99347,1042.672L393.99347,1042.673L393.99347,1042.672L393.99347,1042.672"/> </g> <g style="fill:rgb(75,45,35); fill-opacity:1.0; stroke-linejoin: miter"> <path d="M333.12222,1115.7491L350.19638,1120.8379L367.27048,1125.9272Q362.78458,1140.9764,358.29898,1156.026Q341.22495,1150.9369,324.15085,1145.8474Q328.6365,1130.7983,333.12222,1115.7491"/> </g> <g style="fill:rgb(75,45,35); fill-opacity:1.0; stroke-linejoin: miter"> <path d="M347.33194,1124.2228L348.20804,1125.0383L349.0842,1125.8545Q365.32028,1108.4208,381.5555,1090.9866Q380.67947,1090.171,379.80325,1089.3551L347.33194,1124.2228"/> </g> <g style="fill:rgb(75,45,35); fill-opacity:1.0; stroke-linejoin: miter"> <path d="M346.38028,1075.3395Q346.2518,1083.176,345.8422,1085.7284Q345.50925,1088.2064,345.11905,1090.277L347.59348,1122.6407L349.9808,1122.4584L346.38474,1075.3395 Z"/> </g> <g style="fill:rgb(0,0,0); fill-opacity:1.0; stroke-linejoin: miter"> <path d="M514.0934,1076.6969L530.8972,1076.2826L547.7011,1075.8683Q536.8638,1089.0116,526.02637,1102.1548Q526.8648,1093.2793,527.70325,1084.404L514.0934,1076.6969"/> </g> <g style="fill:rgb(105,232,251); fill-opacity:1.0; stroke-linejoin: miter"> <path d="M639.21564,723.59125C638.8792,722.3371,638.71906,721.0434,638.73846,719.73285C638.8559,711.9843,645.2548,705.77606,653.00385,705.8935C656.22723,705.9416,659.3591,707.1086,661.8228,709.1789C664.0136,711.01996,665.5977,713.5014,666.3477,716.2402C671.5402,715.8339,676.17816,719.19525,677.57025,724.0197C678.3582,723.8525,679.1617,723.7746,679.9704,723.78705C685.93365,723.8774,690.71246,728.7668,690.6225,734.7304C690.5319,740.69476,685.60736,745.43695,679.6441,745.34735L641.8864,744.7763C635.92303,744.6862,631.1446,739.79584,631.2348,733.83246C631.30865,728.95306,634.6009,724.8332,639.21564,723.59125 Z"/> </g> </g> </svg>